<?xml version="1.0" standalone="no"?>
<!DOCTYPE svg PUBLIC "-//W3C//DTD SVG 20010904//EN"
 "http://www.w3.org/TR/2001/REC-SVG-20010904/DTD/svg10.dtd">
<svg version="1.0" xmlns="http://www.w3.org/2000/svg"
 width="920.000000pt" height="1036.000000pt" viewBox="0 0 920.000000 1036.000000"
 preserveAspectRatio="xMidYMid meet">

<g transform="translate(0.000000,1036.000000) scale(0.100000,-0.100000)"
fill="#000000" stroke="none">
<path d="M4569 9876 c-62 -82 -209 -230 -304 -306 -451 -357 -1091 -572 -1875
-631 -201 -15 -676 -7 -880 16 -349 37 -720 117 -1008 217 -79 27 -145 48
-147 46 -2 -2 -10 -129 -19 -283 -9 -154 -18 -307 -21 -340 -12 -176 -17
-1125 -6 -1385 64 -1548 335 -2734 855 -3745 557 -1082 1358 -1868 2625 -2579
158 -89 261 -144 673 -356 146 -75 99 -79 373 30 660 263 1236 604 1760 1039
191 159 545 513 702 701 638 767 1081 1670 1348 2753 134 539 230 1181 265
1767 6 96 13 198 15 225 10 93 13 959 5 1175 -14 356 -60 1004 -73 1017 -3 2
-49 -14 -103 -35 -330 -131 -712 -221 -1118 -263 -267 -28 -752 -23 -996 10
-672 91 -1203 294 -1655 634 -44 33 -146 126 -226 206 l-145 146 -45 -59z
m404 -499 c606 -429 1294 -645 2117 -664 458 -11 907 40 1375 156 88 22 163
37 166 33 6 -6 24 -219 50 -572 17 -232 23 -1153 10 -1410 -74 -1432 -383
-2610 -941 -3585 -666 -1162 -1649 -1997 -2984 -2536 l-169 -68 -246 124
c-1232 621 -1994 1224 -2584 2046 -491 684 -845 1556 -1036 2555 -17 88 -31
166 -31 172 0 9 461 12 1965 12 l1965 0 1 1950 c1 1073 3 1955 4 1960 1 6 3
30 4 55 l1 45 123 -106 c67 -58 161 -133 210 -167z m-2131 -1619 c35 1 261 25
502 52 242 28 446 49 454 48 7 -2 -157 -155 -367 -341 -342 -304 -379 -341
-371 -360 4 -12 101 -218 214 -457 112 -239 203 -436 201 -438 -2 -2 -200 105
-439 237 -240 133 -442 244 -450 247 -8 3 -163 -129 -392 -335 -208 -187 -380
-338 -382 -337 -3 3 72 364 163 793 19 89 35 170 35 180 0 14 -94 70 -391 233
-216 118 -419 230 -453 247 -33 18 -59 33 -56 34 3 0 237 26 520 57 l514 57
103 495 c56 272 102 497 103 500 0 3 97 -202 215 -455 l215 -460 62 3z"/>
<path d="M5280 8398 c-96 -110 -175 -204 -175 -209 0 -4 60 -58 134 -120 358
-298 566 -418 782 -450 l80 -11 226 -196 225 -196 -28 -25 c-16 -15 -343 -298
-727 -629 -383 -332 -697 -609 -697 -616 0 -20 71 -97 86 -94 7 2 342 288 745
636 l731 633 22 -19 c125 -112 1440 -1244 1449 -1248 20 -7 101 81 91 98 -5 8
-333 295 -729 638 -396 342 -719 625 -718 627 1 3 102 92 225 198 220 191 224
194 278 200 177 22 335 96 570 268 109 80 370 296 370 307 0 8 -349 410 -356
410 -6 0 -303 -231 -389 -303 -238 -199 -345 -366 -345 -537 l0 -46 -167 -144
c-92 -80 -198 -171 -234 -202 l-67 -58 -229 199 -229 198 -12 89 c-20 156
-106 293 -278 445 -77 68 -431 349 -448 355 -6 2 -90 -87 -186 -198z"/>
<path d="M3580 5135 c-324 -41 -530 -144 -792 -394 -133 -127 -221 -243 -287
-376 -137 -275 -153 -554 -54 -929 56 -215 133 -346 296 -507 135 -134 396
-282 616 -351 l103 -33 -5 -125 c-9 -225 -65 -326 -186 -338 l-51 -5 0 -88 0
-89 365 0 365 0 0 90 0 90 -52 0 c-123 0 -176 93 -193 341 l-7 96 132 7 c213
11 350 40 495 106 90 40 94 48 57 123 -42 86 -73 117 -113 117 -18 0 -85 -18
-148 -40 -136 -46 -362 -76 -397 -52 -17 12 -2 323 17 352 11 17 68 41 224 97
116 41 217 77 225 79 12 4 24 -16 49 -78 48 -117 203 -425 380 -752 83 -154
150 -280 148 -282 -1 -1 -31 -16 -67 -34 -36 -18 -114 -62 -173 -98 -106 -63
-165 -91 -198 -92 -9 0 -41 14 -72 30 -31 17 -61 30 -67 30 -14 0 -100 -112
-100 -131 0 -26 334 -348 361 -349 14 0 101 84 114 111 12 23 13 37 3 78 -11
48 -10 53 13 78 23 25 238 135 289 148 24 6 29 -2 94 -121 37 -70 70 -143 73
-163 7 -56 -31 -120 -89 -151 -27 -14 -48 -28 -48 -31 0 -4 24 -40 53 -80 39
-56 59 -75 79 -77 18 -2 106 37 280 124 139 70 255 129 257 131 7 6 -34 84
-68 131 l-32 43 -83 -7 -84 -7 -32 44 c-35 49 -140 240 -140 256 0 11 142 59
255 87 93 23 165 34 365 56 288 33 452 74 621 159 100 50 159 93 226 164 176
186 187 504 27 764 -55 89 -179 206 -267 253 -37 19 -67 38 -67 41 0 3 25 23
55 44 81 55 169 154 189 211 27 75 32 196 12 274 -28 108 -109 210 -218 273
-90 53 -133 57 -730 57 l-548 0 0 -135 0 -134 92 -3 92 -3 1 -640 c0 -682 -1
-696 -49 -752 -21 -25 -32 -28 -100 -31 l-76 -4 0 -89 0 -89 365 0 365 0 0 90
0 90 -81 0 c-91 0 -112 8 -135 51 -21 42 -34 184 -27 295 l6 92 68 27 c37 14
151 68 252 120 l185 93 103 -61 c183 -109 276 -226 315 -395 54 -230 -62 -369
-374 -446 -150 -38 -494 -104 -627 -121 -121 -15 -283 -51 -364 -79 -24 -9
-47 -16 -52 -16 -4 0 -108 197 -230 438 -122 240 -251 490 -286 555 -34 65
-63 120 -63 122 0 2 48 32 107 67 240 141 330 284 321 506 -3 73 -8 98 -35
155 -36 75 -111 156 -186 200 -96 57 -100 57 -857 57 l-695 0 0 -132 0 -133
188 -3 187 -2 0 -649 c0 -356 -3 -650 -6 -654 -18 -17 -269 97 -370 168 -123
88 -278 277 -349 427 -51 107 -67 197 -67 368 0 244 44 399 164 581 144 218
413 416 675 496 79 24 104 27 248 27 164 1 223 -7 345 -46 139 -44 233 -106
415 -272 142 -130 183 -149 228 -103 16 15 28 48 40 112 13 62 43 147 98 278
44 103 79 198 77 210 -3 19 -10 22 -50 25 -70 5 -120 -12 -143 -49 -60 -93
-173 -90 -482 11 -82 26 -184 56 -228 65 -109 23 -331 28 -475 10z m2578 -994
c207 -94 112 -288 -228 -469 -109 -58 -226 -109 -346 -152 l-84 -29 0 340 0
340 303 -3 c293 -3 304 -4 355 -27z m-1824 -11 c105 -11 179 -43 227 -97 29
-34 31 -40 26 -94 -13 -149 -132 -258 -450 -409 -115 -55 -392 -170 -409 -170
-4 0 -8 173 -8 385 l0 384 123 4 c279 7 407 6 491 -3z"/>
</g>
</svg>
