<?xml version="1.0" standalone="no"?>
<!DOCTYPE svg PUBLIC "-//W3C//DTD SVG 20010904//EN"
 "http://www.w3.org/TR/2001/REC-SVG-20010904/DTD/svg10.dtd">
<svg version="1.0" xmlns="http://www.w3.org/2000/svg"
 width="3700.000000pt" height="4179.000000pt" viewBox="0 0 3700.000000 4179.000000"
 preserveAspectRatio="xMidYMid meet">

<g transform="translate(0.000000,4179.000000) scale(0.100000,-0.100000)"
fill="#000000" stroke="none">
<path d="M17815 41783 c-1774 -68 -3620 -536 -5895 -1496 -759 -320 -1935
-859 -2610 -1197 -2576 -1289 -5200 -2061 -7625 -2245 -421 -32 -535 -36
-1036 -42 l-516 -6 -7 -111 c-133 -2309 -160 -4681 -76 -6786 217 -5425 1199
-10194 2938 -14270 708 -1659 1526 -3172 2537 -4695 1688 -2539 3893 -4863
6585 -6936 1848 -1424 3881 -2704 6183 -3893 l207 -108 333 173 c4097 2126
7494 4661 10143 7570 1238 1358 2278 2763 3266 4409 1402 2335 2517 5018 3292
7916 985 3685 1466 7742 1466 12359 0 1268 -50 2970 -120 4130 -6 88 -10 179
-10 203 l0 42 -372 0 c-487 0 -806 14 -1303 56 -2395 200 -4916 949 -7480
2222 -737 366 -1755 834 -2530 1165 -2307 982 -4141 1457 -5931 1537 -191 8
-1242 11 -1439 3z m1180 -1853 c1530 -64 3039 -427 4952 -1191 712 -284 1215
-506 2763 -1216 1259 -578 1716 -781 2350 -1043 1878 -777 3894 -1279 5845
-1455 99 -9 183 -20 186 -23 6 -6 12 -166 40 -1022 5 -168 12 -753 16 -1300 8
-1357 -12 -2236 -77 -3440 -267 -4904 -1216 -9266 -2835 -13035 -404 -941
-837 -1826 -1240 -2535 -1395 -2455 -3230 -4711 -5485 -6744 -1982 -1787
-4290 -3385 -6787 -4700 l-223 -118 -137 73 c-3765 1978 -6970 4483 -9478
7409 -1378 1608 -2531 3321 -3385 5030 -2214 4431 -3407 9609 -3620 15720 -25
734 -32 1362 -27 2340 4 558 11 1148 16 1310 29 866 34 1006 40 1012 3 3 87
14 186 23 1840 167 3757 626 5510 1320 681 269 1321 550 2680 1175 1532 705
2113 960 2863 1257 2234 884 3991 1230 5847 1153z"/>
<path d="M18020 37564 c-1240 -89 -2532 -405 -4006 -977 -698 -272 -1334 -548
-2464 -1072 -1451 -673 -1775 -820 -2300 -1045 -763 -327 -1365 -555 -2015
-763 -1004 -322 -1942 -566 -2760 -717 -121 -22 -231 -43 -244 -46 l-23 -5 5
-1057 c5 -1025 10 -1242 42 -1992 263 -6102 1619 -11266 4068 -15490 250 -431
673 -1080 1035 -1589 1117 -1569 2478 -3062 4022 -4412 1474 -1289 3115 -2454
4943 -3508 l177 -103 188 108 c1925 1105 3778 2445 5332 3859 647 588 1385
1332 1945 1960 937 1051 1753 2136 2468 3283 532 852 1137 2023 1612 3117 711
1639 1294 3427 1725 5293 551 2389 878 4953 985 7727 26 686 35 1190 35 2007
l0 798 -22 5 c-13 2 -86 16 -163 30 -1296 239 -2818 678 -4090 1180 -732 289
-1253 520 -2945 1305 -1501 696 -2314 1041 -3170 1345 -1625 576 -3182 846
-4380 759z m1630 -6892 c629 -1945 1188 -3673 1242 -3839 l99 -303 4049 0
c2228 0 4050 -3 4050 -7 0 -5 -1472 -1074 -3271 -2378 -1799 -1303 -3273
-2374 -3275 -2380 -3 -7 2280 -7041 2481 -7643 15 -46 19 -70 11 -65 -7 5
-1478 1078 -3269 2386 -1791 1307 -3261 2377 -3267 2377 -5 0 -1476 -1070
-3268 -2378 -1791 -1308 -3262 -2381 -3268 -2385 -6 -3 14 73 46 171 31 97
596 1833 1255 3856 l1198 3680 -25 20 c-14 12 -1488 1081 -3276 2376 -1788
1295 -3251 2358 -3252 2363 0 4 1822 7 4050 7 l4049 0 99 303 c54 166 613
1894 1242 3839 630 1946 1147 3538 1150 3538 3 0 520 -1592 1150 -3538z"/>
</g>
</svg>
