<?xml version="1.0" standalone="no"?>
<!DOCTYPE svg PUBLIC "-//W3C//DTD SVG 20010904//EN"
 "http://www.w3.org/TR/2001/REC-SVG-20010904/DTD/svg10.dtd">
<svg version="1.0" xmlns="http://www.w3.org/2000/svg"
 width="600.000000pt" height="390.000000pt" viewBox="0 0 600.000000 390.000000"
 preserveAspectRatio="xMidYMid meet">

<g transform="translate(0.000000,390.000000) scale(0.100000,-0.100000)"
fill="#000000" stroke="none">
<path d="M2577 3892 c-79 -2 -86 -4 -72 -18 23 -23 18 -39 -20 -68 -19 -15
-35 -32 -35 -39 0 -6 25 -37 55 -67 51 -51 55 -59 49 -89 -8 -37 -28 -49 -55
-33 -10 7 -26 12 -35 12 -8 0 -41 25 -73 55 -32 30 -60 55 -62 55 -2 0 -5 -17
-7 -37 -3 -44 -2 -44 -30 -36 -23 6 -30 37 -10 49 7 4 8 3 4 -4 -4 -7 -3 -12
2 -12 6 0 13 7 16 16 9 22 8 24 -9 24 -8 0 -15 5 -15 10 0 25 -18 6 -29 -30
-11 -39 -46 -74 -63 -64 -4 3 -8 19 -8 35 0 18 -4 28 -10 24 -5 -3 -10 1 -10
9 0 79 -169 -110 -240 -270 -30 -65 -45 -78 -57 -46 -7 18 -22 32 -37 32 -5 0
-4 -6 3 -13 16 -20 -35 -74 -76 -81 -29 -5 -33 -3 -35 17 -2 39 2 62 17 76 12
13 12 16 -2 26 -20 15 -17 22 65 143 23 35 42 65 42 67 0 2 24 37 53 77 57 81
94 154 83 166 -4 4 -111 7 -236 7 -238 0 -269 -5 -241 -39 8 -10 10 -27 6 -46
-6 -29 -10 -31 -43 -28 -36 3 -37 4 -37 42 -1 28 -7 43 -24 57 -22 18 -46 19
-412 19 -248 0 -390 -4 -394 -10 -3 -5 3 -10 14 -10 46 0 63 -73 40 -166 -12
-47 -1 -78 24 -68 7 2 20 -9 30 -26 18 -29 18 -30 -1 -30 -12 0 -22 9 -25 21
-3 12 -10 18 -16 14 -15 -9 -14 -35 1 -35 6 0 4 -6 -6 -13 -17 -13 -18 -18 -6
-66 7 -29 9 -55 6 -58 -3 -4 -6 2 -7 13 0 10 -7 -6 -14 -37 -23 -95 12 -201
70 -211 19 -3 20 3 20 107 0 93 3 112 18 123 9 7 17 23 17 36 0 35 22 56 68
67 52 11 80 -4 97 -53 6 -18 15 -32 21 -31 5 1 22 5 37 8 21 6 27 4 27 -9 0
-9 7 -16 15 -16 8 0 15 -3 15 -8 0 -4 10 -12 22 -17 15 -7 29 -29 41 -66 16
-49 23 -58 49 -63 17 -3 35 -3 42 1 6 4 16 8 21 9 6 1 22 5 36 9 17 4 30 2 34
-6 6 -9 2 -11 -13 -7 -24 7 -29 3 -36 -33 -2 -13 -7 -31 -11 -40 -3 -9 1 -36
9 -60 20 -57 20 -56 -9 -61 -30 -6 -42 7 -25 27 7 9 8 15 0 20 -5 3 -10 3 -10
-2 -1 -19 -20 24 -20 45 0 13 -6 22 -15 22 -8 0 -15 5 -15 10 0 6 -4 10 -10
10 -5 0 -10 -9 -10 -19 0 -11 -5 -21 -11 -23 -6 -2 -15 -28 -20 -58 -9 -59
-27 -80 -68 -80 -33 1 -54 17 -74 57 -23 43 -22 61 1 40 13 -12 21 -14 29 -6
15 15 68 7 68 -11 0 -11 -13 -16 -43 -18 -37 -3 -42 -6 -31 -18 15 -18 48 -18
73 1 14 11 21 31 24 72 4 54 2 60 -27 87 -42 41 -42 71 1 71 30 0 33 3 33 29
0 35 -23 51 -58 42 -27 -6 -27 -5 -27 -98 1 -38 -12 -49 -27 -26 -4 7 -6 24
-5 38 2 29 -22 65 -37 55 -6 -3 -11 -24 -11 -45 0 -31 3 -38 16 -33 12 4 14 0
8 -22 -7 -28 -7 -28 35 -22 30 4 41 2 38 -6 -2 -7 -24 -11 -55 -10 l-52 1 5
-51 c12 -117 14 -133 14 -155 1 -12 9 -25 19 -29 9 -3 29 -14 43 -24 37 -26
81 -20 97 14 14 29 39 38 27 10 -13 -33 -10 -46 13 -49 13 -2 21 0 17 5 -10
17 13 22 28 6 13 -13 16 -13 21 0 3 8 14 15 24 15 10 0 23 5 29 11 8 8 17 6
34 -10 14 -13 36 -21 59 -21 29 0 39 -6 53 -29 10 -17 26 -33 37 -36 10 -3 21
-19 25 -35 7 -30 35 -42 35 -15 0 7 8 19 18 24 15 9 15 10 -5 11 -13 0 -23 6
-23 14 0 15 -27 30 -47 27 -7 -1 -13 4 -13 12 0 8 -9 22 -20 32 -21 19 -27 45
-10 45 6 0 10 -8 10 -18 0 -18 40 -39 118 -62 39 -12 44 -11 65 7 12 11 32 26
45 32 12 6 22 18 22 25 0 8 7 19 15 26 12 10 15 10 15 -4 0 -9 4 -16 9 -16 5
0 13 -9 16 -20 5 -15 0 -26 -17 -40 -18 -15 -21 -21 -10 -31 9 -10 15 -10 24
-1 7 7 18 12 25 12 17 0 17 -30 1 -30 -8 0 -6 -5 4 -10 15 -9 14 -17 -16 -78
-19 -37 -41 -87 -49 -112 -8 -25 -26 -68 -39 -96 -22 -48 -25 -50 -51 -41 -22
7 -26 13 -21 33 5 20 3 24 -18 24 -19 0 -32 12 -54 46 -30 46 -31 49 -33 84
-2 36 -19 21 -26 -22 -4 -24 -12 -54 -18 -68 -9 -22 -11 -17 -23 49 -7 41 -18
79 -23 84 -6 6 -8 2 -4 -13 5 -18 3 -21 -7 -15 -10 6 -12 4 -7 -9 4 -10 7 -24
7 -32 0 -9 3 -13 8 -11 4 3 8 -6 8 -19 1 -16 -3 -24 -15 -24 -13 0 -13 -2 -2
-9 7 -5 11 -17 7 -27 -3 -11 -8 -48 -12 -83 -6 -55 -13 -73 -45 -114 -24 -30
-42 -64 -45 -89 -7 -42 -30 -61 -45 -37 -6 10 -11 11 -19 3 -8 -8 -4 -16 14
-28 24 -15 26 -22 26 -91 0 -55 -4 -78 -16 -90 -15 -15 -15 -20 -1 -56 8 -21
12 -39 7 -39 -10 0 -8 -20 3 -38 11 -16 12 -70 3 -79 -13 -13 -24 20 -15 44 5
14 5 23 -1 23 -6 0 -10 -10 -10 -22 0 -17 -3 -19 -12 -10 -17 17 -28 15 -28
-4 0 -8 5 -12 10 -9 6 3 10 1 10 -4 0 -6 -7 -11 -15 -11 -8 0 -15 5 -15 10 0
14 -16 12 -33 -5 -8 -8 -17 -12 -19 -9 -5 4 -74 -53 -121 -100 -16 -17 -39
-50 -52 -75 -39 -77 -45 -82 -107 -86 -55 -3 -56 -3 -62 27 -3 17 -6 54 -6 83
0 61 5 65 83 65 37 0 48 3 37 10 -8 5 -35 10 -60 10 -36 1 -42 3 -27 11 10 6
25 8 33 5 8 -3 14 -1 14 4 0 6 7 10 16 10 11 0 14 6 9 20 -8 26 4 47 17 29 7
-10 8 -2 4 24 -4 31 -2 38 9 33 10 -3 15 1 15 13 0 25 11 33 27 20 9 -9 13 -8
13 0 0 6 -4 11 -10 11 -18 0 -11 36 10 55 12 10 18 25 16 32 -3 7 1 13 9 13 8
0 15 -7 15 -15 0 -8 4 -15 9 -15 15 0 33 102 21 114 -5 5 -10 21 -10 34 0 17
-4 23 -15 18 -11 -4 -15 1 -15 17 1 21 2 20 28 -9 15 -17 38 -46 52 -63 73
-94 77 -90 20 17 -42 79 -47 101 -11 56 35 -45 24 -3 -15 56 -45 67 -43 65
-50 57 -3 -3 4 -19 17 -36 12 -17 20 -33 17 -37 -4 -3 -15 7 -24 23 -10 15
-21 30 -25 33 -7 6 -29 46 -29 54 0 3 5 6 10 6 6 0 10 -8 10 -17 1 -17 1 -17
11 0 8 14 5 24 -20 49 -17 18 -31 26 -31 18 0 -9 -6 -8 -20 5 -12 10 -18 25
-15 32 2 8 1 12 -4 8 -5 -3 -12 8 -16 25 -4 16 -13 34 -21 38 -8 5 -19 21 -23
38 -9 27 -9 28 -10 4 0 -14 15 -56 34 -95 19 -38 35 -75 35 -82 0 -6 7 -19 16
-27 14 -15 14 -16 -2 -16 -10 0 -26 8 -36 17 -11 10 -30 18 -44 18 -13 1 -23
6 -22 11 2 5 6 8 10 7 4 -2 5 4 1 13 -5 13 -8 12 -25 -5 -10 -12 -23 -21 -28
-21 -16 0 -39 -43 -44 -85 -2 -22 -10 -65 -16 -95 -7 -30 -12 -68 -11 -84 1
-15 -4 -34 -10 -42 -6 -7 -8 -18 -4 -24 8 -14 -16 -110 -27 -110 -5 0 -6 -5
-3 -10 4 -6 2 -25 -3 -43 -24 -80 -44 -227 -34 -240 9 -10 8 -17 -1 -27 -8 -8
-8 -11 -1 -7 7 4 15 0 18 -9 9 -24 7 -105 -4 -144 -11 -40 -56 -93 -71 -84 -5
3 -16 0 -24 -6 -12 -10 -17 -7 -25 14 -5 14 -15 26 -21 26 -6 0 -26 15 -43 33
-17 18 -39 36 -48 40 -11 4 -18 17 -18 32 0 14 -4 25 -9 25 -8 0 -28 44 -31
68 -1 4 -8 18 -17 32 -30 45 -14 304 28 459 46 171 57 221 63 303 7 81 6 88
-13 100 -28 17 -26 24 8 31 61 12 74 66 31 127 -54 77 -166 355 -176 433 -3
29 -12 88 -20 132 -8 43 -19 122 -25 173 -6 52 -19 122 -30 156 -34 109 -24
131 55 124 l30 -3 -3 55 c-1 30 -4 67 -7 83 l-6 27 -119 0 -119 0 0 -529 0
-530 33 -25 c19 -15 37 -26 40 -26 4 0 18 21 32 48 20 36 25 40 20 18 -3 -15
-9 -41 -12 -57 -8 -41 -28 -55 -45 -31 -7 10 -25 27 -40 36 -26 17 -28 17 -28
2 0 -20 36 -92 49 -101 6 -3 8 -12 4 -20 -3 -9 -1 -21 4 -28 15 -18 22 -56 13
-62 -4 -3 -13 10 -20 28 -11 29 -13 30 -20 12 -5 -11 -9 -44 -9 -72 -1 -29 -5
-53 -11 -53 -6 0 -10 -41 -10 -102 0 -81 3 -105 17 -120 14 -16 15 -29 7 -99
l-10 -81 28 6 c38 8 35 -1 -7 -18 -33 -14 -34 -17 -24 -43 7 -19 7 -29 0 -31
-6 -2 -11 -21 -11 -43 l0 -38 51 30 c28 16 54 27 58 24 12 -12 39 -129 34
-144 -5 -13 -3 -14 8 -3 7 6 17 12 21 12 13 0 9 -30 -5 -36 -8 -3 -11 -17 -9
-39 4 -37 22 -39 22 -2 0 16 3 18 11 10 9 -9 9 -34 1 -100 -13 -103 -9 -306 7
-385 12 -57 45 -100 78 -103 10 -1 29 -7 43 -13 14 -6 37 -13 51 -16 38 -8 42
-29 13 -71 -30 -45 -30 -49 1 -41 36 9 32 -11 -12 -56 -40 -41 -40 -54 0 -39
20 8 28 7 35 -4 4 -8 22 -16 40 -18 18 -2 35 -6 38 -10 10 -10 -7 -47 -21 -47
-8 0 -12 -6 -9 -13 2 -7 -2 -26 -10 -41 -19 -37 -11 -69 15 -55 10 5 22 21 25
34 3 14 12 25 19 25 13 0 39 48 47 85 3 15 8 9 18 -22 10 -32 10 -52 1 -87 -6
-25 -11 -63 -11 -85 0 -33 -5 -44 -30 -63 -17 -12 -36 -23 -44 -24 -8 -1 -22
-7 -33 -14 -15 -9 -11 -10 22 -6 22 3 51 8 64 12 20 6 23 4 18 -8 -8 -21 20
-58 44 -58 39 0 18 -27 -48 -61 -29 -15 -49 -18 -85 -14 -40 6 -47 4 -52 -13
-4 -11 -15 -27 -26 -37 -18 -17 -19 -16 -25 8 -7 26 16 82 36 89 9 3 8 10 -2
25 -16 26 -63 34 -99 17 -17 -8 -48 -10 -93 -5 -67 7 -69 7 -78 -18 -6 -14 -9
-36 -7 -50 2 -20 8 -25 25 -24 13 2 23 -2 23 -7 0 -6 -5 -10 -12 -10 -9 0 -9
-3 0 -12 7 -7 12 -27 12 -44 0 -52 28 -69 122 -78 25 -2 44 -11 57 -27 l19
-23 -67 -39 c-36 -21 -110 -62 -164 -90 -98 -50 -117 -69 -117 -118 0 -17 8
-19 85 -19 83 0 85 1 85 24 0 37 27 61 125 112 116 60 195 106 195 115 0 4
-21 10 -47 14 l-46 7 54 26 c46 23 58 35 80 81 18 37 36 60 59 72 18 10 37 24
41 31 6 9 12 8 26 -4 10 -9 30 -20 46 -23 17 -5 27 -14 27 -26 0 -10 13 -28
30 -40 21 -16 27 -26 21 -38 -5 -9 -7 -30 -4 -46 3 -21 -1 -38 -14 -52 -17
-19 -24 -20 -95 -13 -91 10 -98 8 -205 -48 -136 -72 -218 -133 -221 -165 l-3
-27 80 0 79 0 7 30 c8 38 23 39 27 2 l3 -27 653 -3 c358 -1 652 0 652 2 0 3
-9 21 -21 40 -17 30 -20 52 -20 157 -1 117 -2 125 -31 178 -25 48 -29 63 -23
104 3 27 2 54 -3 60 -5 7 -12 43 -16 81 -5 53 -12 73 -26 83 -11 8 -20 23 -20
34 0 10 -6 20 -12 20 -7 1 -20 3 -28 4 -8 1 -21 3 -27 4 -7 0 -13 6 -13 12 0
8 5 7 15 -1 23 -19 28 -6 11 33 -11 27 -28 43 -67 63 l-53 26 69 29 c77 33
205 69 245 69 23 0 29 6 39 41 9 30 9 45 2 52 -6 6 -11 28 -11 49 0 35 -2 38
-20 28 -23 -12 -70 -3 -86 16 -10 13 -13 12 -18 -1 -4 -11 -13 -14 -31 -9 -16
4 -39 0 -58 -9 -18 -8 -68 -21 -112 -27 -44 -7 -110 -25 -148 -41 -65 -29 -69
-29 -127 -17 l-59 12 -11 55 c-6 31 -17 69 -25 84 -24 47 -20 55 37 61 103 13
264 39 318 52 46 10 59 10 76 -1 18 -12 25 -11 45 3 13 9 28 17 34 18 5 1 21
5 34 9 23 8 23 10 16 69 -5 34 -9 87 -9 119 -1 53 -7 69 -20 49 -3 -5 -33 -17
-68 -26 -35 -10 -81 -25 -103 -33 -40 -15 -99 -11 -122 9 -8 6 -20 4 -36 -6
-13 -9 -27 -13 -30 -9 -4 4 -64 6 -133 4 -119 -2 -128 -1 -150 20 -28 26 -31
39 -9 39 8 0 15 5 15 10 0 6 8 5 20 -2 15 -10 22 -10 32 0 14 14 32 16 23 2
-7 -12 32 -22 65 -17 19 3 24 9 22 27 -2 14 0 20 7 16 6 -4 11 -13 11 -19 0
-7 9 -18 19 -24 15 -10 20 -9 25 2 6 18 37 20 53 4 13 -13 82 -8 128 9 34 12
82 25 169 43 46 10 61 10 64 1 2 -7 9 -12 16 -12 16 0 62 48 54 56 -4 3 -56 6
-116 7 -61 1 -109 4 -107 5 2 2 -23 26 -55 53 -32 27 -66 59 -74 71 -15 21
-14 23 15 42 26 16 32 17 40 5 5 -8 9 -10 9 -5 0 20 49 -38 55 -64 3 -16 13
-31 22 -34 13 -5 78 26 93 44 3 4 13 9 23 13 10 4 25 23 33 42 8 20 22 38 32
41 30 10 66 28 95 48 24 18 27 26 27 79 0 65 13 99 35 91 10 -4 12 -15 8 -37
l-6 -31 31 24 c17 14 34 34 38 45 9 27 37 52 52 47 18 -6 15 -39 -5 -52 -12
-8 -14 -13 -6 -16 7 -3 9 -12 6 -20 -3 -8 1 -14 11 -14 10 0 13 -6 10 -17 -5
-14 -4 -15 4 -4 5 7 7 31 5 52 -7 49 13 53 23 4 4 -25 2 -39 -10 -50 -19 -20
-20 -32 -3 -38 9 -3 9 -8 -3 -21 -13 -16 -12 -20 3 -31 20 -14 22 -41 5 -48
-8 -3 -6 -6 4 -6 11 -1 15 -6 12 -16 -5 -11 -10 -12 -25 -2 -10 6 -20 18 -23
27 -2 10 -4 8 -5 -5 -1 -12 16 -36 39 -58 22 -20 43 -50 46 -66 6 -26 3 -30
-25 -36 -30 -6 -44 -25 -18 -25 6 0 1 -9 -13 -20 -26 -20 -56 -26 -62 -12 -3
10 -68 25 -68 16 0 -3 13 -10 30 -15 16 -6 32 -19 35 -28 3 -10 42 -55 86
-102 89 -93 119 -134 119 -164 0 -12 23 -43 51 -70 68 -67 82 -97 81 -170 -2
-76 22 -151 49 -158 17 -5 19 -9 9 -27 -6 -11 -16 -17 -22 -14 -8 5 -10 -35
-5 -147 4 -89 1 -230 -6 -334 -6 -99 -11 -211 -10 -250 1 -38 1 -112 2 -162
l0 -93 146 0 145 0 10 25 c5 14 13 25 18 25 4 0 9 72 10 160 1 88 -1 160 -6
160 -4 0 -42 -36 -85 -80 -43 -44 -80 -80 -83 -80 -2 0 -4 31 -4 69 0 66 2 72
38 115 20 24 42 45 47 46 17 2 105 88 105 103 0 8 9 17 20 20 11 3 26 19 33
36 18 42 37 22 38 -39 0 -25 4 -54 8 -65 8 -19 9 -18 21 8 23 47 28 40 51 -66
13 -60 25 -79 35 -54 7 19 -13 135 -28 165 -9 18 -9 27 0 40 7 9 15 25 18 35
10 28 21 20 28 -21 26 -156 27 -168 3 -232 -26 -67 -52 -103 -70 -97 -7 2 -18
23 -25 48 -7 24 -20 64 -29 88 l-16 44 -18 -24 c-59 -76 -76 -167 -38 -210 14
-17 22 -20 25 -11 18 43 48 -30 39 -95 -6 -43 -11 -51 -53 -78 l-47 -30 104
-3 c101 -3 105 -2 132 24 29 28 54 24 44 -7 -6 -18 0 -19 85 -19 84 0 92 2 85
17 -4 10 -11 58 -17 108 -10 93 -26 153 -27 107 -1 -32 -33 -145 -44 -157 -6
-6 -8 15 -5 58 3 45 0 67 -7 67 -7 0 -16 25 -22 55 -8 49 -7 59 16 107 19 40
26 48 29 33 6 -29 22 -43 22 -19 0 11 20 82 45 157 44 135 45 141 45 270 0 73
1 161 2 197 0 36 0 94 -1 130 -2 52 5 87 33 174 20 59 36 119 36 132 0 31 56
158 92 208 15 22 28 45 28 50 0 6 4 17 9 25 7 11 14 8 35 -15 30 -34 34 -94
11 -151 -9 -21 -18 -64 -21 -98 -3 -33 -11 -100 -19 -150 -21 -132 -25 -195
-15 -195 5 0 7 -7 4 -15 -4 -8 -10 -13 -14 -10 -9 6 -32 -61 -50 -150 -12 -58
-46 -182 -71 -258 -11 -33 -10 -48 11 -119 21 -72 22 -87 12 -142 -23 -124
-28 -203 -24 -343 l2 -73 76 0 c64 0 75 2 70 15 -3 9 -3 36 1 61 l6 45 33 -32
c20 -20 48 -34 71 -38 29 -5 39 -11 41 -29 3 -21 8 -22 99 -22 86 0 95 2 100
20 3 11 10 20 17 20 38 -1 152 -22 160 -30 6 -6 37 -10 69 -10 l60 0 -7 37
c-25 148 -27 180 -15 249 18 103 41 87 69 -48 6 -31 22 -74 36 -94 20 -29 25
-47 23 -88 l-3 -51 147 -3 147 -3 0 54 c0 67 15 82 93 91 55 6 74 -3 43 -21
-19 -11 -96 -102 -96 -114 0 -5 51 -9 118 -9 l118 0 19 38 19 37 10 -37 10
-38 224 1 c196 0 223 2 218 15 -3 9 -6 22 -6 30 0 8 -9 14 -21 14 -18 0 -20 4
-14 30 6 29 5 30 -17 25 -17 -4 -28 1 -42 20 -20 27 -41 32 -49 13 -3 -8 -6
-6 -6 4 -1 10 -18 27 -40 40 -28 16 -37 27 -33 41 4 17 2 18 -16 8 -11 -6 -30
-11 -41 -11 -22 0 -29 -24 -11 -35 11 -7 4 -25 -8 -25 -4 0 -16 17 -26 38 -10
20 -22 44 -26 52 -4 8 -12 16 -19 16 -6 1 -15 2 -21 3 -5 0 -10 7 -10 13 0 7
-25 36 -56 64 -39 36 -54 56 -48 66 6 9 3 9 -10 -2 -16 -13 -20 -12 -31 3 -12
17 -75 25 -75 9 0 -5 -11 -14 -24 -21 -20 -11 -33 -10 -87 9 -35 12 -72 26
-82 31 -26 14 -230 33 -263 25 -26 -7 -27 -9 -10 -18 13 -7 20 -7 26 2 8 13
120 4 120 -10 0 -5 18 -11 40 -15 48 -8 60 -22 25 -31 -29 -7 -59 2 -51 15 3
5 -3 7 -13 4 -30 -8 -33 -30 -5 -37 14 -4 29 -4 34 -1 6 3 18 1 27 -4 19 -11
11 -12 -92 -15 -22 -1 -46 -5 -52 -9 -9 -5 -13 -3 -13 7 0 9 -8 16 -19 16 -14
0 -17 6 -13 25 3 19 0 25 -12 25 -10 0 -14 -4 -11 -10 3 -5 1 -10 -4 -10 -6 0
-11 4 -11 8 0 9 -88 36 -106 33 -7 -1 -25 12 -40 29 -16 17 -39 37 -52 46 -22
14 -22 14 -16 -12 4 -17 2 -29 -7 -34 -20 -13 -29 -2 -30 33 -1 48 -36 180
-38 142 0 -17 -5 -35 -11 -41 -9 -9 1 -54 31 -152 2 -7 -14 -22 -36 -35 -22
-12 -50 -34 -63 -50 -25 -29 -53 -35 -70 -14 -5 6 -20 48 -32 92 -31 112 -29
110 -77 67 -62 -55 -63 -112 -3 -171 37 -36 40 -43 40 -94 0 -31 5 -59 11 -63
7 -4 -18 -22 -57 -43 -38 -21 -72 -35 -76 -32 -4 3 0 80 7 171 8 91 15 182 15
202 l0 37 -55 -29 c-31 -16 -65 -36 -77 -45 -32 -22 -38 -19 -39 18 0 30 -1
31 -10 8 -5 -13 -11 -22 -14 -20 -2 3 -8 37 -13 77 -6 54 -5 72 4 76 13 5 33
-40 35 -78 1 -19 2 -19 8 3 5 19 18 27 61 37 63 16 130 44 130 54 0 4 -12 12
-26 18 -34 16 -24 28 33 37 27 5 54 9 61 11 19 4 33 -42 26 -87 -7 -41 4 -51
26 -24 22 26 33 12 54 -70 30 -111 65 -116 42 -6 -8 42 -8 55 2 59 19 6 14 52
-8 70 -24 21 -17 62 11 62 21 0 34 16 19 25 -6 4 -8 11 -5 16 12 18 33 9 44
-18 10 -25 10 -24 5 12 -3 22 -13 44 -21 49 -13 7 -14 24 -9 110 4 55 9 113
12 129 3 15 1 27 -4 27 -5 0 -12 -41 -16 -90 -4 -50 -11 -100 -16 -113 -7 -15
-8 3 -4 58 4 60 1 108 -15 188 -13 68 -21 149 -21 220 -1 76 -6 125 -16 152
-9 22 -17 52 -19 66 -2 15 -9 43 -16 63 -7 19 -9 39 -5 43 9 10 30 -17 63 -82
41 -82 68 -112 108 -119 21 -4 35 -13 35 -21 0 -12 6 -12 38 2 20 10 46 25 58
35 11 10 23 15 27 12 10 -11 38 18 33 33 -3 7 -1 13 4 13 17 0 25 -5 22 -12
-1 -5 2 -8 7 -8 5 0 12 8 15 18 3 9 19 26 36 37 29 20 39 35 21 35 -4 0 -20
-9 -35 -21 -15 -11 -34 -18 -42 -15 -13 5 -12 10 8 35 21 27 58 39 101 32 4 0
7 7 7 16 1 32 26 -40 39 -111 12 -68 12 -70 -11 -88 -13 -10 -18 -18 -13 -19
32 -4 41 -2 61 16 11 11 27 31 34 45 l13 24 28 -34 c16 -19 29 -29 29 -23 0 6
-7 16 -14 23 -20 16 -50 96 -41 109 3 6 19 11 36 11 22 0 29 -5 29 -20 0 -11
4 -20 10 -20 11 0 2 59 -13 78 -6 8 -5 17 3 27 11 13 15 13 41 0 15 -8 39 -15
54 -15 20 0 25 5 25 25 0 28 3 29 31 15 10 -6 19 -21 19 -34 0 -19 8 -26 46
-36 45 -13 46 -14 41 -49 -3 -20 -11 -83 -18 -141 -10 -97 -21 -132 -34 -118
-3 3 -1 24 4 47 7 34 6 43 -5 48 -8 3 -14 14 -14 24 0 11 -7 22 -15 25 -8 3
-17 14 -20 25 -10 32 -21 22 -34 -33 -8 -29 -19 -60 -26 -68 -7 -8 -16 -25
-19 -37 -10 -30 12 -30 23 0 5 12 21 37 35 56 l26 35 0 -35 c0 -19 -7 -47 -15
-63 -19 -37 -11 -46 13 -16 l19 24 12 -37 c7 -20 10 -50 6 -65 -6 -30 11 -90
23 -78 10 10 61 152 79 219 9 31 18 55 20 53 3 -2 0 -44 -6 -93 -17 -135 -14
-269 5 -298 15 -22 22 -25 71 -21 29 2 57 7 61 11 4 4 7 59 8 123 0 65 6 163
14 219 12 91 16 105 42 130 23 22 32 25 46 17 18 -12 20 -46 6 -131 -6 -40 11
-121 24 -109 3 3 11 -2 18 -12 19 -25 27 -9 30 60 1 34 7 64 13 66 6 2 11 10
11 18 0 18 20 17 44 -1 11 -8 26 -15 33 -15 18 0 53 32 47 42 -3 4 2 17 10 29
8 12 12 27 10 34 -3 7 5 21 18 30 23 17 23 17 -14 12 -55 -8 -47 6 18 33 31
13 88 40 127 62 38 21 71 38 72 38 9 0 -11 -48 -27 -64 -10 -11 -16 -26 -14
-33 6 -13 -21 -102 -35 -117 -11 -12 -12 -39 -1 -32 19 11 3 -46 -24 -87 -31
-47 -120 -147 -132 -147 -4 -1 -40 -32 -81 -70 -41 -39 -79 -70 -85 -70 -12 0
-50 -41 -76 -81 -8 -12 -25 -34 -38 -47 -22 -23 -22 -24 -6 -62 11 -25 27 -43
45 -49 26 -9 28 -7 44 36 10 25 35 66 57 91 22 26 58 76 81 111 l42 64 75 -2
c85 -3 93 -6 81 -29 -22 -43 -122 -354 -116 -360 2 -2 12 1 23 7 51 27 147 -7
182 -65 12 -19 26 -34 31 -34 5 0 4 8 -3 19 -9 15 -6 35 15 102 15 46 31 107
37 134 22 99 76 259 129 375 25 56 135 183 164 191 12 3 40 1 62 -4 22 -4 61
-10 88 -12 65 -5 108 -34 139 -95 14 -27 22 -50 17 -50 -5 0 -28 12 -50 26
-41 26 -42 26 -75 8 -19 -10 -74 -59 -124 -109 l-90 -91 -30 -109 c-34 -127
-37 -155 -10 -103 19 36 85 76 152 93 14 4 40 24 57 46 39 48 103 70 130 45
10 -9 24 -16 33 -16 31 0 48 -34 48 -100 l0 -63 -37 6 c-21 3 -47 9 -58 12
-17 5 -24 -4 -47 -54 -22 -48 -32 -96 -48 -223 -38 -312 -42 -376 -24 -404 11
-15 14 -35 11 -53 -5 -25 -3 -30 16 -33 16 -2 22 -10 22 -27 0 -22 -8 -26 -80
-43 -125 -30 -203 -11 -208 50 -1 12 -7 22 -14 22 -44 0 -68 154 -38 255 24
84 46 131 131 273 74 123 82 144 65 171 -7 11 -16 11 -57 -3 -26 -9 -55 -16
-65 -16 -10 0 -21 -4 -24 -10 -15 -24 -55 -262 -55 -327 0 -61 -5 -84 -34
-145 -19 -40 -43 -94 -54 -121 l-21 -47 -37 25 c-20 14 -39 23 -42 21 -2 -3
-10 -29 -17 -59 -12 -51 -11 -56 8 -72 18 -16 19 -19 5 -29 -20 -15 -40 -54
-31 -59 5 -3 88 -4 186 -4 153 1 177 3 177 16 1 14 2 14 13 -1 13 -16 105 -22
320 -19 l57 1 0 1945 0 1945 -300 0 -299 0 -8 -37 c-4 -21 -6 -47 -4 -58 3
-16 1 -17 -13 -6 -9 7 -13 18 -9 25 4 6 1 6 -9 -2 -13 -11 -16 -8 -21 18 -4
18 -13 30 -23 30 -12 0 -14 -6 -9 -30 4 -18 2 -30 -3 -30 -6 0 -17 -2 -24 -5
-17 -7 -38 33 -38 70 l0 25 -449 0 -449 0 -11 -44 c-6 -25 -11 -62 -11 -83 0
-48 57 -219 102 -304 19 -35 47 -95 63 -134 16 -38 42 -86 57 -105 15 -19 28
-43 28 -53 0 -11 13 -31 28 -45 30 -28 52 -63 52 -82 0 -6 -12 -16 -27 -23
-16 -6 -34 -18 -42 -25 -12 -12 -25 -3 -88 64 -73 77 -84 98 -60 107 10 4 10
6 0 6 -7 1 -13 6 -13 12 0 6 -18 29 -40 51 -22 23 -43 52 -46 67 -3 14 -12 42
-19 61 -40 110 -70 324 -55 395 1 6 2 19 1 30 -2 17 -4 16 -17 -8 -10 -18 -13
-40 -9 -60 6 -30 5 -31 -10 -13 -8 11 -15 38 -15 60 0 24 -10 56 -25 82 l-26
44 -747 -3 c-411 -1 -787 -3 -835 -5z m3343 -14 c19 11 20 10 20 -24 0 -40
-26 -103 -47 -111 -8 -3 -11 -14 -7 -29 8 -30 -10 -32 -33 -4 -10 11 -27 20
-38 21 -11 0 -14 3 -7 6 7 2 12 22 12 44 0 21 3 39 8 39 4 0 18 16 31 36 18
25 26 31 32 22 7 -11 12 -11 29 0z m-605 -191 c20 -16 12 -39 -10 -30 -9 3
-15 -1 -15 -8 0 -7 -7 -3 -16 9 -25 37 2 56 41 29z m553 -1 c9 -10 -17 -56
-30 -54 -6 2 -18 -9 -25 -24 -8 -16 -19 -28 -24 -28 -16 0 -79 -73 -79 -91 0
-9 7 -20 16 -23 19 -7 9 -26 -14 -26 -24 0 -70 52 -68 77 0 13 16 33 35 47 19
14 43 40 55 59 38 60 58 75 95 72 18 -2 36 -6 39 -9z m-4764 -63 c-10 -11 -29
-16 -46 -14 -31 3 -36 -12 -14 -42 28 -36 134 -5 111 32 -3 5 -1 12 5 16 18
11 11 -64 -10 -105 -11 -21 -23 -41 -28 -44 -4 -2 -32 11 -61 31 -52 35 -53
37 -48 75 7 53 22 68 69 68 37 0 39 -1 22 -17z m326 -22 c0 -10 7 -21 15 -25
8 -3 15 -16 15 -28 0 -19 -2 -20 -10 -8 -14 22 -13 -22 1 -54 10 -22 9 -28
-12 -46 l-24 -21 33 5 c24 4 34 2 39 -10 6 -17 5 -19 -23 -28 -14 -4 -28 -1
-38 9 -9 9 -21 13 -27 9 -9 -5 -10 11 -5 62 4 38 12 71 18 75 7 4 9 21 5 43
-3 20 -2 36 4 36 5 0 9 -9 9 -19z m2803 -106 c-11 -110 -27 -114 -31 -9 -3 56
0 79 10 85 17 11 26 -22 21 -76z m1115 28 c28 -38 8 -82 -52 -114 -29 -15 -36
-16 -36 -5 0 8 -9 31 -21 50 -26 45 -22 78 11 87 35 11 83 2 98 -18z m530 -63
c-2 -37 -7 -50 -20 -54 -10 -2 -18 0 -18 5 0 5 -7 9 -15 9 -12 0 -12 5 -1 32
8 18 19 34 25 36 6 2 11 10 11 18 0 9 5 12 10 9 6 -4 9 -28 8 -55z m-3597 13
c1 -16 0 -32 -1 -38 -1 -5 -3 -32 -5 -60 -1 -27 -6 -58 -10 -67 -4 -10 -4 -25
-1 -34 10 -27 -10 -6 -39 40 -16 26 -33 46 -37 46 -22 0 -4 40 27 61 21 15 35
32 35 45 0 41 29 48 31 7z m569 7 c13 -8 12 -10 -3 -10 -10 0 -15 -4 -12 -10
3 -5 15 -10 25 -10 10 0 26 -10 34 -22 19 -27 21 -79 4 -75 -8 1 -12 -7 -10
-22 3 -26 -41 -77 -58 -66 -5 3 -10 22 -10 42 l0 36 24 -22 24 -22 4 35 c2 23
-1 41 -11 51 -13 13 -12 15 10 24 21 8 22 10 6 16 -25 10 -49 -12 -37 -35 14
-26 13 -30 -8 -30 -10 0 -28 14 -40 30 -13 17 -31 30 -42 30 -25 0 -26 27 -3
52 18 20 78 24 103 8z m630 -50 c0 -40 15 -55 23 -22 3 11 5 8 6 -8 0 -15 7
-32 14 -38 6 -7 13 -34 13 -60 3 -76 3 -80 20 -86 14 -5 15 2 9 64 -5 50 -4
70 4 70 7 0 14 -6 17 -14 3 -8 12 -12 20 -9 10 4 14 -4 14 -32 0 -20 -4 -34
-9 -30 -6 3 -9 -29 -8 -82 l2 -88 32 -3 c31 -3 32 -2 38 42 4 25 5 59 3 75 -3
23 1 32 19 42 29 16 30 42 1 61 -20 13 -21 17 -9 32 7 9 20 16 28 16 8 0 26 9
40 20 14 11 34 20 43 20 10 0 23 7 30 15 18 21 40 19 40 -5 0 -11 9 -34 20
-52 21 -35 27 -88 9 -88 -5 0 -7 -5 -3 -11 6 -11 -27 -134 -48 -172 -5 -10 -6
-27 -3 -38 8 -23 2 -24 -28 -5 -12 8 -33 17 -47 21 -25 7 -24 7 6 -26 27 -30
51 -79 38 -79 -3 0 -15 12 -27 26 -15 17 -28 23 -40 19 -23 -10 -22 -25 3 -25
11 0 20 -7 20 -15 0 -8 -9 -19 -20 -25 -11 -6 -20 -19 -20 -30 0 -10 -12 -27
-26 -37 -17 -13 -29 -33 -34 -61 -4 -23 -5 -43 -3 -46 3 -2 18 0 34 6 25 9 29
15 29 48 0 25 5 40 16 44 28 11 54 6 54 -9 0 -8 4 -15 10 -15 5 0 12 -11 16
-25 5 -21 12 -25 40 -25 19 0 37 -1 41 -2 4 -2 6 25 4 58 l-2 62 51 3 c29 2
53 2 55 -1 2 -3 6 -42 10 -87 l7 -81 33 5 c18 3 42 0 53 -6 20 -11 21 -10 16
81 -3 51 -10 116 -16 143 -5 28 -12 65 -15 84 l-5 33 43 -7 c24 -4 48 -11 53
-16 5 -4 4 -31 -2 -64 -10 -51 -9 -67 16 -161 15 -57 29 -104 32 -104 3 0 11
37 19 83 7 45 20 108 29 141 16 58 16 58 -7 75 -17 13 -24 29 -25 61 0 27 4
45 12 47 8 3 12 -7 12 -31 0 -41 5 -43 32 -19 13 12 18 13 16 4 -2 -7 3 -16
11 -19 11 -4 13 5 9 39 -4 31 -1 49 10 58 12 12 13 11 7 -8 -5 -17 -2 -21 15
-21 17 0 20 -4 15 -20 -4 -13 2 -31 19 -53 28 -37 31 -48 17 -75 -5 -9 -13
-28 -18 -42 l-10 -25 -17 34 c-11 20 -21 30 -27 24 -10 -10 33 -157 53 -180 5
-7 15 -45 22 -85 10 -60 16 -73 31 -73 30 0 27 -19 -10 -60 l-36 -38 29 -13
c44 -18 48 -33 16 -62 -16 -14 -42 -37 -59 -52 -16 -15 -43 -30 -60 -34 l-30
-6 33 28 c30 27 42 52 24 52 -5 0 -17 -8 -28 -18 -53 -49 -121 -91 -95 -59 49
58 63 79 59 83 -3 2 -22 -12 -42 -33 -32 -33 -36 -43 -31 -70 5 -27 3 -32 -10
-27 -8 3 -13 9 -10 14 2 4 -8 7 -23 6 -15 0 -40 3 -55 7 -28 8 -28 7 -21 -28
8 -46 -6 -45 -31 3 -26 49 -37 59 -93 89 -63 34 -157 37 -225 6 -66 -31 -147
-111 -191 -190 -48 -88 -62 -106 -75 -98 -6 3 -11 16 -11 28 0 15 -3 18 -9 9
-6 -11 -10 -11 -19 0 -18 22 -61 164 -70 235 -9 63 0 136 18 156 4 5 5 28 3
51 -3 24 -1 51 4 61 9 15 11 12 17 -19 8 -41 16 -44 40 -17 21 23 39 186 26
233 -19 63 18 58 60 -9 l28 -43 15 22 c15 23 15 23 30 3 9 -11 19 -17 23 -13
4 4 1 15 -6 24 -8 8 -13 37 -13 62 l1 47 -52 0 c-40 0 -50 3 -47 15 2 8 9 32
14 52 12 42 4 58 -21 41 -12 -8 -17 -24 -17 -62 0 -40 -5 -56 -19 -66 -10 -8
-23 -12 -27 -9 -5 3 -9 106 -9 229 0 138 -4 226 -10 230 -5 3 -10 19 -10 36 0
22 5 29 20 29 17 0 20 -7 20 -40z m-70 -187 c0 -114 -3 -203 -7 -199 -4 4 -6
22 -5 39 2 18 -2 46 -8 62 -17 44 -25 267 -11 294 25 45 31 6 31 -196z m-69
135 c1 -18 3 -57 4 -86 2 -29 0 -52 -4 -50 -3 2 -23 14 -43 27 -32 19 -38 29
-38 56 0 43 9 65 26 65 8 0 14 5 14 10 0 6 9 10 20 10 16 0 20 -7 21 -32z
m644 -36 c-3 -22 -12 -48 -20 -58 -11 -15 -15 -16 -29 -5 -21 18 -20 36 5 89
19 38 23 42 36 29 11 -11 13 -26 8 -55z m-2730 46 c14 -6 25 -15 25 -20 0 -5
4 -6 10 -3 6 4 7 -1 3 -11 -5 -12 -14 -15 -42 -10 -20 3 -44 6 -53 6 -21 0
-24 20 -6 38 15 15 30 15 63 0z m3757 0 c9 -7 26 -42 38 -78 28 -84 49 -118
61 -99 7 12 9 11 10 -1 1 -8 1 -18 0 -22 -3 -18 17 -6 22 13 3 12 10 18 17 14
21 -13 -14 -50 -52 -53 -29 -3 -37 -9 -52 -42 -25 -58 -83 -100 -138 -100 -51
0 -80 17 -76 45 6 34 18 45 49 45 41 0 36 15 -8 26 -45 11 -56 39 -21 53 21 9
21 10 -9 10 -37 1 -39 7 -18 58 16 39 6 67 -21 56 -15 -6 -18 5 -8 31 6 15 8
15 20 -1 9 -12 13 -14 14 -5 0 7 4 11 10 7 5 -3 7 -12 4 -20 -8 -21 54 -95 74
-87 30 11 71 57 63 71 -4 6 -33 15 -64 18 -39 4 -57 10 -57 19 0 8 8 14 18 15
9 0 31 9 47 19 36 22 56 24 77 8z m544 -13 c-6 -25 2 -32 20 -16 5 4 21 11 36
15 21 5 30 2 38 -13 8 -16 5 -23 -16 -40 -15 -12 -31 -21 -35 -21 -5 0 -9 -7
-9 -16 0 -12 -7 -15 -25 -12 -14 3 -25 1 -25 -3 0 -5 -7 -9 -15 -9 -9 0 -15
-6 -14 -12 4 -30 -2 -43 -11 -23 -12 27 -12 57 -1 50 6 -3 10 13 9 36 0 29 5
45 16 51 9 5 16 16 16 23 0 8 5 15 11 15 7 0 9 -10 5 -25z m44 15 c0 -5 -2
-10 -4 -10 -3 0 -8 5 -11 10 -3 6 -1 10 4 10 6 0 11 -4 11 -10z m341 -39 c13
-42 -4 -205 -23 -228 -14 -17 -3 -44 15 -37 21 8 27 -26 26 -157 0 -224 -5
-269 -37 -364 -44 -131 -87 -372 -94 -530 -1 -25 -2 -24 -7 10 -4 22 -3 56 1
75 4 19 8 56 8 82 0 26 4 67 9 90 5 24 16 75 25 113 8 39 22 104 31 145 8 41
18 85 21 98 4 13 2 22 -4 22 -12 0 -18 -16 -28 -75 -4 -22 -20 -89 -37 -150
-19 -71 -33 -151 -38 -225 -4 -63 -12 -131 -17 -150 l-8 -35 -17 45 -17 45 5
-55 c3 -43 2 -51 -7 -36 -7 12 -8 46 -4 95 4 42 11 135 16 206 5 72 12 163 16
203 5 53 4 72 -5 72 -7 0 -11 6 -8 13 2 6 10 12 17 12 20 0 30 49 22 109 l-6
51 -12 -40 c-7 -24 -13 -32 -14 -20 -1 18 -2 18 -11 -3 -18 -46 -25 -12 -17
84 5 63 4 102 -2 108 -7 7 -10 4 -10 -7 0 -9 -4 -17 -9 -17 -9 0 -25 59 -36
137 l-7 42 31 -12 c26 -10 34 -21 47 -67 9 -30 20 -64 24 -75 5 -11 8 -37 8
-57 0 -44 10 -64 24 -50 6 6 6 17 -1 30 -6 11 -11 29 -11 38 0 16 1 16 16 -2
15 -19 15 -19 11 1 -3 11 -8 29 -13 39 -5 13 -4 17 3 13 18 -11 22 17 7 58
-17 50 -17 55 0 55 8 0 17 7 20 16 4 12 1 14 -14 9 -19 -6 -20 -3 -18 53 2 49
6 61 23 68 11 5 29 26 40 46 11 21 26 38 33 38 13 0 17 16 4 22 -4 2 -6 24 -4
50 5 55 16 54 33 -1z m-4541 19 c0 -5 -4 -10 -10 -10 -5 0 -10 5 -10 10 0 6 5
10 10 10 6 0 10 -4 10 -10z m111 -12 c29 -33 24 -50 -13 -46 -22 2 -34 9 -36
20 -3 14 1 16 15 11 17 -7 17 -6 1 11 -22 22 -22 26 -2 26 9 0 25 -10 35 -22z
m1731 -29 c-3 -38 -7 -44 -21 -34 -12 7 -15 58 -4 69 15 15 28 -3 25 -35z
m1047 17 c17 -18 20 -30 15 -51 -8 -31 -11 -55 -13 -98 -1 -18 -6 -27 -13 -24
-7 2 -12 10 -10 16 1 6 -2 11 -8 11 -5 0 -10 10 -10 22 0 21 0 21 -15 2 -14
-18 -16 -18 -19 8 -2 19 -65 21 -72 3 -9 -23 -27 -18 -21 6 3 12 1 30 -6 40
-15 24 -8 29 55 38 61 8 78 16 78 37 0 21 13 17 39 -10z m-2924 -6 c3 -5 1
-10 -4 -10 -6 0 -11 5 -11 10 0 6 2 10 4 10 3 0 8 -4 11 -10z m515 -4 c0 -3
-4 -8 -10 -11 -5 -3 -10 -1 -10 4 0 6 5 11 10 11 6 0 10 -2 10 -4z m-670 -16
c0 -5 -5 -10 -11 -10 -5 0 -7 5 -4 10 3 6 8 10 11 10 2 0 4 -4 4 -10z m1728
-2 c17 -17 15 -38 -3 -38 -8 0 -15 4 -15 9 0 5 -3 16 -6 25 -7 19 7 21 24 4z
m1717 2 c22 -8 25 -13 16 -24 -18 -22 -55 -27 -94 -13 -46 15 -50 30 -12 38
46 10 61 10 90 -1z m-2495 -10 c0 -5 -2 -10 -4 -10 -3 0 -8 5 -11 10 -3 6 -1
10 4 10 6 0 11 -4 11 -10z m-600 -30 c0 -11 -4 -20 -10 -20 -5 0 -10 9 -10 20
0 11 5 20 10 20 6 0 10 -9 10 -20z m221 -3 c-13 -13 -26 -3 -16 12 3 6 11 8
17 5 6 -4 6 -10 -1 -17z m911 4 c70 -8 82 -18 32 -26 -22 -3 -53 -10 -70 -15
-46 -15 -60 -12 -77 14 -15 22 -14 24 6 34 12 6 29 8 37 5 8 -3 41 -9 72 -12z
m-1334 -75 c2 -47 0 -57 -8 -43 -6 9 -8 21 -5 27 3 5 -1 25 -9 44 -13 32 -13
35 2 33 14 -1 18 -13 20 -61z m-78 44 c0 -5 -4 -10 -9 -10 -6 0 -13 5 -16 10
-3 6 1 10 9 10 9 0 16 -4 16 -10z m110 -11 c0 -11 -4 -17 -10 -14 -5 3 -10 13
-10 21 0 8 5 14 10 14 6 0 10 -9 10 -21z m213 -9 c3 -13 0 -20 -9 -20 -8 0
-14 10 -14 26 0 28 15 25 23 -6z m3967 26 c0 -3 -4 -8 -10 -11 -5 -3 -10 -1
-10 4 0 6 5 11 10 11 6 0 10 -2 10 -4z m-3682 -39 c14 -40 15 -67 2 -67 -9 0
-30 61 -30 88 0 24 16 12 28 -21z m272 18 c0 -8 5 -15 10 -15 6 0 10 -13 10
-30 0 -26 -5 -31 -40 -40 -70 -19 -38 -59 36 -45 31 5 34 4 34 -20 0 -18 -5
-25 -20 -25 -11 0 -20 -5 -20 -10 0 -6 -9 -21 -20 -33 -18 -18 -22 -20 -30 -7
-5 8 -7 23 -4 32 6 21 -10 52 -47 92 -16 17 -36 45 -46 63 -10 18 -23 33 -30
33 -19 0 -16 -14 7 -35 29 -26 26 -45 -6 -36 -21 5 -27 14 -29 39 -4 44 13 51
113 52 66 0 82 -3 82 -15z m3584 -50 c38 4 44 -8 26 -50 -7 -17 -9 -17 -9 -2
-1 20 -21 23 -21 3 0 -13 -4 -12 -29 0 -32 16 -41 38 -33 79 l5 27 12 -29 c11
-27 17 -30 49 -28z m-4439 35 c4 -6 -7 -10 -25 -10 -18 0 -29 4 -25 10 3 6 15
10 25 10 10 0 22 -4 25 -10z m1975 0 c14 0 8 -43 -9 -63 -16 -20 -17 -73 0
-93 7 -8 7 -14 -1 -19 -5 -3 -13 2 -17 12 -14 40 -44 72 -71 75 -40 5 -43 49
-5 68 42 21 67 28 81 24 8 -2 17 -4 22 -4z m2110 -62 c-19 -16 -45 -39 -58
-50 -34 -31 -39 -13 -9 29 20 28 24 40 15 50 -6 7 -8 17 -4 20 4 4 11 2 15 -5
6 -10 13 -8 32 7 24 20 24 20 34 -1 8 -17 3 -25 -25 -50z m-5193 30 c-3 -7 -5
-2 -5 12 0 14 2 19 5 13 2 -7 2 -19 0 -25z m827 23 c6 -9 -35 -24 -43 -15 -6
5 18 24 31 24 4 0 9 -4 12 -9z m4525 -25 c10 -11 9 -21 -4 -46 -9 -17 -13 -36
-9 -42 5 -7 3 -8 -6 -3 -10 6 -12 4 -6 -11 5 -13 4 -16 -3 -9 -11 12 -23 103
-15 116 8 14 30 11 43 -5z m-3839 -26 c0 -20 -26 -35 -35 -20 -8 13 14 52 26
45 5 -4 9 -14 9 -25z m760 14 c0 -8 -4 -12 -10 -9 -5 3 -10 10 -10 16 0 5 5 9
10 9 6 0 10 -7 10 -16z m-1170 -24 c0 -5 -7 -10 -15 -10 -8 0 -15 5 -15 10 0
6 7 10 15 10 8 0 15 -4 15 -10z m640 -27 c0 -9 6 -13 15 -10 8 4 17 2 21 -4 3
-6 24 -9 47 -7 36 2 43 -1 59 -27 10 -17 18 -33 18 -36 0 -14 -33 -19 -46 -8
-9 8 -14 8 -14 1 0 -14 33 -24 55 -16 14 6 16 3 11 -14 -9 -26 11 -65 29 -58
26 9 24 -7 -3 -30 -29 -26 -35 -27 -70 -18 -21 6 -62 68 -62 94 0 18 20 0 30
-26 6 -16 17 -24 32 -24 l22 0 -22 16 c-16 11 -21 22 -17 35 4 13 2 19 -9 19
-9 0 -16 7 -16 15 0 9 -6 12 -15 9 -19 -8 -59 33 -74 77 -14 39 -14 42 -1 34
6 -3 10 -13 10 -22z m320 -23 c-9 -32 -14 -40 -23 -31 -9 9 -7 20 7 46 24 45
30 39 16 -15z m120 40 c0 -5 -4 -10 -10 -10 -5 0 -10 5 -10 10 0 6 5 10 10 10
6 0 10 -4 10 -10z m108 -35 c-3 -3 -9 2 -12 12 -6 14 -5 15 5 6 7 -7 10 -15 7
-18z m-88 -1 c0 -8 -4 -12 -10 -9 -5 3 -10 10 -10 16 0 5 5 9 10 9 6 0 10 -7
10 -16z m-1090 -25 c0 -18 -18 -9 -23 12 -4 16 -3 18 9 8 8 -6 14 -15 14 -20z
m452 1 c16 -29 16 -30 -5 -45 -12 -8 -25 -15 -28 -15 -14 0 -21 61 -9 75 17
21 23 19 42 -15z m3858 18 c-1 -48 -14 -88 -30 -88 -27 0 -28 7 -6 55 20 44
36 58 36 33z m-2420 -8 c0 -5 -9 -10 -21 -10 -11 0 -17 5 -14 10 3 6 13 10 21
10 8 0 14 -4 14 -10z m2261 -78 c13 -21 11 -25 -34 -67 -27 -24 -46 -49 -43
-54 8 -12 -25 -31 -53 -31 -29 0 -33 -14 -17 -57 8 -21 17 -46 20 -55 4 -15
10 -16 38 -6 31 11 133 106 170 159 l17 24 1 -32 c0 -41 -10 -69 -20 -53 -18
30 -58 -35 -62 -101 -2 -31 1 -43 10 -42 6 2 12 1 12 -2 0 -15 -64 -123 -87
-147 -20 -21 -24 -32 -18 -57 4 -17 4 -31 1 -31 -4 0 -29 17 -56 37 l-50 37 0
94 c0 51 -7 125 -15 165 -8 40 -14 86 -13 102 1 17 -2 46 -6 65 -5 25 -3 41 8
55 15 19 15 19 16 -7 0 -15 4 -29 9 -32 14 -9 60 18 66 39 3 11 22 33 43 48
l37 28 6 -28 c3 -15 12 -38 20 -51z m-3761 37 c0 -10 -7 -19 -15 -19 -16 0
-19 9 -9 34 8 20 24 11 24 -15z m120 24 c0 -5 -5 -15 -10 -23 -8 -12 -10 -11
-10 8 0 12 5 22 10 22 6 0 10 -3 10 -7z m-709 -46 c-13 -13 -15 1 -4 30 7 17
8 17 11 -1 2 -10 -1 -23 -7 -29z m1367 -24 c-10 -85 -10 -82 -2 -119 5 -27 3
-32 -18 -37 -44 -12 -64 -7 -86 23 -12 16 -22 32 -22 35 0 3 12 19 28 36 15
17 36 47 47 67 31 56 35 62 48 62 9 0 11 -17 5 -67z m2632 55 c0 -13 -57 -67
-105 -101 -16 -12 -36 -28 -42 -37 -11 -13 -14 -13 -23 0 -15 22 -8 43 17 50
12 3 36 19 55 35 64 58 98 77 98 53z m-3950 -2 c0 -2 3 -12 6 -20 4 -12 2 -15
-9 -10 -21 8 -30 34 -12 34 8 0 15 -2 15 -4z m2065 -28 c4 -18 6 -37 5 -43 -6
-20 0 -59 10 -69 6 -6 10 -14 10 -18 0 -16 -35 29 -58 73 -27 53 -27 58 -4 75
25 19 29 18 37 -18z m-866 10 c0 -16 -58 -63 -66 -54 -3 3 9 19 28 36 39 34
39 34 38 18z m2405 -2 c20 -8 40 -27 50 -47 21 -42 20 -46 -9 -53 -13 -3 -36
-22 -50 -41 -27 -34 -58 -119 -48 -129 12 -12 53 27 53 51 0 14 16 40 40 65
44 46 51 42 20 -10 -11 -18 -29 -63 -39 -100 -29 -99 -44 -136 -63 -150 -10
-7 -18 -20 -18 -28 0 -8 -4 -14 -9 -14 -19 0 -83 90 -97 135 l-13 46 52 -46
c28 -25 55 -45 58 -45 14 0 15 75 2 88 -7 7 -13 22 -13 33 0 21 -20 44 -63 72
-15 9 -27 22 -27 27 0 21 41 50 70 50 28 0 30 -2 30 -40 0 -46 24 -56 39 -17
5 13 16 29 25 36 23 19 20 31 -13 42 -23 8 -30 17 -33 45 -6 50 1 53 56 30z
m-1927 -10 c16 4 27 -2 44 -25 18 -25 30 -31 59 -31 20 0 45 -6 55 -14 11 -8
24 -12 30 -10 6 2 11 -16 12 -47 1 -28 -1 -49 -4 -45 -3 3 -15 0 -27 -6 -11
-6 -36 -13 -55 -15 -39 -4 -61 -19 -61 -39 0 -20 16 -25 46 -14 31 12 80 5 87
-13 3 -9 -11 -11 -52 -9 -63 3 -55 -12 12 -24 24 -3 37 -11 34 -18 -3 -6 3
-22 13 -34 15 -18 19 -19 24 -6 3 9 6 28 6 44 0 39 10 61 24 53 6 -3 6 -1 -1
8 -13 14 -18 86 -7 113 12 32 32 16 43 -34 14 -63 14 -80 1 -80 -5 0 -10 -4
-10 -10 0 -6 9 -6 25 0 22 8 27 7 35 -15 5 -14 12 -25 16 -25 3 0 4 7 0 15 -3
8 -3 15 0 15 8 0 105 -51 118 -61 6 -5 20 -16 31 -24 22 -15 15 -31 -10 -22
-25 10 -29 8 -30 -15 0 -36 -20 -31 -66 17 -24 25 -54 48 -66 51 -12 3 -24 12
-27 20 -8 20 -26 17 -26 -3 0 -10 -7 -31 -15 -47 -8 -15 -15 -38 -15 -51 0
-12 -9 -30 -20 -40 -20 -18 -20 -17 -20 11 -1 28 -1 28 -16 9 -8 -11 -12 -25
-10 -31 3 -7 -2 -18 -10 -24 -8 -7 -14 -23 -14 -36 0 -27 -38 -114 -50 -114
-4 0 -15 -18 -25 -40 -21 -47 -41 -66 -77 -75 -24 -6 -27 -4 -23 13 2 11 11
32 21 47 17 26 17 27 -11 49 -23 18 -27 28 -22 52 6 31 -9 123 -26 166 -6 15
-22 30 -34 33 -14 3 -23 13 -23 24 0 10 -6 24 -14 30 -24 20 -27 51 -5 51 10
0 19 5 19 10 0 6 -9 10 -19 10 -27 0 -51 10 -51 22 0 6 30 8 71 6 85 -4 105
14 37 32 -24 6 -61 17 -83 24 -33 11 -42 11 -53 0 -7 -7 -18 -11 -26 -8 -8 3
-16 -2 -19 -13 -4 -15 -5 -15 -6 3 0 11 6 36 15 53 11 21 15 47 11 71 -4 32
-1 39 18 48 12 6 49 8 81 5 43 -3 64 -1 79 10 12 9 24 12 30 7 6 -5 20 -7 32
-4z m-887 -33 c0 -13 -3 -13 -15 -3 -8 7 -15 19 -15 27 0 13 3 13 15 3 8 -7
15 -19 15 -27z m3251 -136 c-27 -69 -30 -87 -22 -110 6 -16 11 -61 11 -100 l0
-73 -40 4 c-34 4 -40 7 -40 28 0 25 -15 33 -23 12 -3 -8 -8 -6 -13 7 -4 11
-15 25 -23 32 -14 11 -13 12 7 13 13 0 22 6 22 15 0 20 17 19 28 -1 8 -14 10
-14 26 1 24 25 15 40 -27 43 -26 2 -37 8 -37 19 0 15 12 15 67 -2 21 -7 21 -6
7 35 -8 23 -15 59 -15 79 0 20 -1 54 -2 75 -2 36 2 42 38 67 l40 27 14 -44
c13 -42 13 -47 -18 -127z m609 121 c0 -19 -2 -20 -10 -8 -13 19 -13 30 0 30 6
0 10 -10 10 -22z m-2401 -65 l-2 -78 -7 70 c-7 65 -6 85 6 85 2 0 3 -35 3 -77z
m2261 68 c0 -5 -12 -17 -27 -27 -16 -10 -35 -24 -43 -32 -24 -25 -23 4 1 38
21 28 69 43 69 21z m-5538 -23 c-7 -7 -12 -8 -12 -2 0 14 12 26 19 19 2 -3 -1
-11 -7 -17z m1823 -17 c3 -11 13 -25 22 -33 12 -9 15 -9 9 0 -4 6 -4 12 1 12
10 0 33 -49 33 -70 0 -13 -9 -16 -34 -16 -19 1 -38 5 -42 9 -11 10 -44 9 -44
-3 0 -5 -7 -7 -16 -3 -13 5 -14 0 -9 -28 3 -19 2 -47 -4 -62 -13 -35 -36 -36
-27 -2 6 23 5 24 -12 14 -21 -13 -82 -179 -82 -221 0 -13 -6 -33 -14 -43 -12
-17 -17 -17 -45 -5 -31 12 -32 14 -25 59 9 62 80 224 118 268 22 26 15 56 -11
46 -17 -6 -17 -5 1 15 14 16 23 19 37 12 10 -6 21 -15 24 -20 13 -21 35 -10
35 17 0 51 71 96 85 54z m-1851 -18 c-9 -36 -43 -85 -54 -78 -8 5 47 105 57
105 2 0 0 -12 -3 -27z m3744 -7 c3 -20 0 -27 -10 -24 -7 3 -14 17 -16 32 -3
20 0 27 10 24 7 -3 14 -17 16 -32z m-3657 -27 c-15 -64 -14 -82 5 -75 8 3 27
-1 42 -9 36 -19 96 -74 89 -81 -3 -3 -35 9 -72 27 -55 26 -69 30 -76 18 -7
-12 -9 -12 -10 1 -3 42 3 109 12 138 15 47 22 33 10 -19z m4246 19 c-3 -8 -6
-5 -6 6 -1 11 2 17 5 13 3 -3 4 -12 1 -19z m-4167 -49 c0 -11 -11 -11 -29 0
-7 5 -10 14 -6 20 5 9 10 9 21 0 8 -6 14 -15 14 -20z m4238 -18 c38 -47 43
-74 7 -35 -14 15 -25 33 -25 40 0 7 -8 18 -17 23 -10 6 -13 11 -7 11 6 0 25
-18 42 -39z m1212 -1 c0 -24 -9 -37 -47 -64 -26 -19 -52 -32 -57 -29 -6 3 -23
20 -39 38 l-27 33 46 27 c30 18 53 25 69 21 13 -3 27 -1 30 4 11 18 25 0 25
-30z m-706 24 c8 -3 13 -11 10 -18 -2 -6 2 -31 11 -55 21 -59 19 -87 -6 -105
-21 -14 -21 -16 -5 -50 9 -19 21 -38 26 -41 13 -8 13 -25 1 -25 -5 0 -18 15
-30 33 -23 35 -28 26 -7 -12 13 -23 12 -25 -28 -45 -41 -21 -41 -21 -47 -1
-11 32 8 248 27 313 4 13 23 16 48 6z m-141 -47 c-11 -17 -23 -118 -42 -349
-1 -5 -14 -8 -29 -8 l-28 0 3 131 c3 123 4 133 28 161 14 16 25 34 25 40 0 17
31 48 41 42 5 -3 6 -11 2 -17z m-2881 -57 c-9 -207 -14 -275 -20 -284 -7 -11
-13 -101 -13 -213 l0 -62 -70 77 c-39 42 -79 80 -90 84 -14 6 -19 17 -19 48
l0 41 55 -4 55 -4 -3 131 c-2 109 1 136 15 161 10 17 18 37 18 46 0 23 22 40
50 37 24 -3 25 -6 22 -58z m121 22 c15 -14 27 -31 27 -38 0 -20 -43 -25 -63
-6 -18 16 -47 64 -47 78 0 14 57 -9 83 -34z m2392 -27 c15 -36 24 -69 20 -73
-10 -10 -47 39 -41 55 3 8 -1 27 -9 43 -17 33 -18 40 -7 40 5 0 22 -29 37 -65z
m-1068 23 c-3 -7 -5 -2 -5 12 0 14 2 19 5 13 2 -7 2 -19 0 -25z m623 6 c0 -8
-5 -12 -10 -9 -6 4 -8 11 -5 16 9 14 15 11 15 -7z m55 7 c3 -5 1 -12 -5 -16
-5 -3 -10 1 -10 9 0 18 6 21 15 7z m-3857 -103 c2 -4 12 -8 21 -8 10 0 21 -3
25 -7 4 -5 13 -8 19 -8 7 0 13 -8 15 -18 3 -16 -1 -17 -35 -11 -70 12 -141 58
-135 86 3 15 7 15 45 -5 23 -11 44 -25 45 -29z m1585 -26 c-3 -20 -12 -47 -19
-59 -8 -12 -14 -37 -14 -54 0 -50 -11 -27 -12 25 0 25 4 58 10 73 5 16 13 36
16 46 10 32 25 8 19 -31z m211 22 c8 -21 -2 -33 -13 -15 -7 11 -11 10 -18 -4
-12 -21 -28 -3 -19 20 7 20 42 19 50 -1z m3685 -21 c-1 -24 -3 -29 -6 -15 -2
12 -12 22 -21 22 -15 1 -14 3 2 15 26 20 26 20 25 -22z m-5624 -40 c-9 -37
-18 -20 -9 19 4 18 9 27 11 20 3 -7 2 -24 -2 -39z m5536 24 c-13 -13 -26 -3
-16 12 3 6 11 8 17 5 6 -4 6 -10 -1 -17z m-5348 -68 c20 -7 37 -19 37 -26 0
-27 -149 15 -192 54 -14 12 -15 19 -7 29 9 11 21 9 68 -15 31 -16 73 -35 94
-42z m5654 -1 c-3 -24 -16 -72 -27 -108 -12 -36 -22 -74 -22 -85 -1 -11 -5
-24 -8 -30 -4 -5 -10 -23 -14 -39 -4 -15 -9 -26 -12 -23 -7 7 34 210 51 257 7
19 16 43 19 53 10 33 19 17 13 -25z m-5763 -47 c38 -18 87 -36 110 -40 29 -4
42 -12 44 -25 4 -17 -1 -18 -49 -13 -74 9 -183 64 -187 96 -2 13 0 21 5 19 4
-2 39 -19 77 -37z m2194 -8 c-19 -20 -20 -25 -8 -33 21 -13 64 -12 78 2 9 9
13 7 18 -6 5 -14 9 -14 22 -4 12 10 16 10 19 1 3 -7 11 -13 19 -13 14 0 18 12
15 38 -1 6 6 12 16 12 25 0 61 -67 59 -110 -1 -31 -5 -35 -33 -38 -31 -3 -72
-36 -59 -49 4 -4 26 -2 51 5 24 6 49 13 56 14 6 2 24 -15 40 -37 24 -36 27
-47 24 -107 -2 -38 1 -70 6 -74 5 -3 5 -13 -1 -24 -5 -10 -9 -57 -8 -104 1
-47 -1 -88 -3 -90 -2 -2 -15 -7 -28 -11 -16 -5 -21 -4 -17 4 4 6 2 11 -3 11
-6 0 -11 -9 -11 -19 0 -11 -4 -23 -10 -26 -5 -3 -10 -15 -10 -25 0 -39 -33
-116 -63 -147 -17 -18 -50 -40 -73 -49 -53 -20 -93 -9 -162 45 -55 44 -106
138 -117 216 -8 51 -32 111 -42 102 -2 -3 2 -16 10 -29 18 -28 32 -122 17
-113 -6 3 -10 11 -10 17 0 5 -9 22 -19 37 -25 34 -31 89 -11 101 13 8 12 10
-4 10 -14 0 -16 3 -8 13 6 7 9 28 7 47 -7 49 13 188 31 215 25 39 59 47 115
29 36 -12 53 -14 61 -6 16 16 -8 42 -39 42 -13 0 -26 7 -29 15 -4 10 -11 12
-18 7 -18 -13 -33 -9 -56 16 -22 24 -24 58 -2 56 6 -1 23 -2 37 -2 15 -1 25
-8 25 -17 0 -8 5 -15 10 -15 6 0 13 7 16 15 4 8 15 15 25 15 10 0 19 5 19 10
0 6 -6 10 -14 10 -15 0 -29 38 -19 53 3 5 16 6 29 3 17 -5 26 -1 34 15 9 16
14 18 26 8 13 -10 12 -15 -8 -36z m60 -5 c-3 -7 -13 -15 -24 -17 -16 -3 -17
-1 -5 13 16 19 34 21 29 4z m3518 -280 c2 -140 2 -262 -2 -271 -7 -19 -50 -19
-65 -1 -6 7 -10 44 -11 83 0 39 -4 73 -8 76 -10 6 -20 -45 -20 -98 0 -29 -3
-38 -11 -30 -10 10 2 162 20 243 7 32 8 30 15 -34 9 -81 26 -72 26 14 0 51 40
284 47 276 2 -2 6 -118 9 -258z m-4151 243 c3 -5 1 -12 -5 -16 -5 -3 -10 1
-10 9 0 18 6 21 15 7z m1229 -11 c-22 -9 -29 -6 -20 9 4 6 14 7 23 4 15 -6 14
-7 -3 -13z m1692 -43 c5 -36 3 -52 -9 -65 -8 -9 -17 -28 -19 -42 -2 -14 -8 12
-12 58 -6 62 -5 86 5 98 17 21 28 6 35 -49z m252 39 c20 4 39 10 42 13 14 18
127 8 190 -16 22 -9 31 -12 65 -20 17 -5 41 -16 55 -26 22 -15 25 -25 25 -75
0 -31 -4 -60 -9 -64 -6 -4 -4 -14 5 -25 28 -31 38 -77 23 -97 -7 -10 -10 -24
-8 -31 3 -7 -2 -24 -10 -37 -9 -14 -21 -47 -26 -74 -15 -72 -15 -73 -23 -80
-4 -4 -7 -21 -7 -37 0 -17 -3 -27 -7 -24 -8 9 -30 -27 -54 -94 -6 -14 -32 -43
-60 -63 -27 -21 -49 -43 -49 -50 0 -17 -41 -40 -72 -41 -24 0 -27 3 -22 25 4
22 3 22 -5 5 -18 -39 -51 -63 -101 -74 -63 -14 -86 -14 -111 -1 -25 14 -59 82
-59 120 0 25 4 30 24 30 24 0 27 18 11 69 -7 24 -25 28 -25 6 0 -8 -4 -15 -9
-15 -4 0 -14 28 -20 63 -6 34 -17 85 -23 112 -6 28 -11 75 -10 105 1 38 -1 50
-8 40 -5 -8 -10 -36 -10 -62 0 -50 -6 -56 -32 -35 -15 11 -14 17 4 67 11 30
25 80 33 110 13 54 19 53 15 -2 -3 -44 25 -25 44 30 26 73 30 77 71 77 48 0
70 27 40 50 -18 14 -34 15 -74 4 -8 -2 -17 4 -19 14 -2 11 3 17 14 17 9 0 31
16 48 35 41 46 100 79 104 59 3 -11 13 -13 40 -8z m-4923 -15 c3 -5 1 -12 -5
-16 -5 -3 -10 1 -10 9 0 18 6 21 15 7z m3025 -33 c0 -19 -28 -6 -38 17 l-12
26 25 -18 c13 -10 25 -21 25 -25z m-2880 11 c30 -11 73 -24 95 -28 28 -4 41
-12 43 -25 4 -17 -1 -18 -48 -12 -72 10 -140 37 -158 64 -19 29 -6 29 68 1z
m2804 -51 c-10 -15 -32 4 -27 23 5 18 6 18 18 2 7 -10 11 -21 9 -25z m20 26
c9 -24 7 -28 -9 -14 -17 14 -20 30 -6 30 5 0 12 -7 15 -16z m-2264 -14 c0 -5
-7 -10 -16 -10 -8 0 -12 5 -9 10 3 6 10 10 16 10 5 0 9 -4 9 -10z m2340 -34
c0 -16 -3 -15 -20 7 -11 14 -20 28 -20 31 0 3 9 1 20 -6 11 -7 20 -21 20 -32z
m130 40 c0 -3 -4 -8 -10 -11 -5 -3 -10 -1 -10 4 0 6 5 11 10 11 6 0 10 -2 10
-4z m73 -3 c7 18 14 6 20 -35 6 -38 6 -38 -18 -22 -22 14 -24 14 -36 -8 -7
-13 -12 -27 -11 -32 2 -5 -3 -4 -12 3 -12 10 -11 15 9 35 13 13 30 26 37 29 7
3 3 6 -9 6 -13 1 -23 -5 -23 -13 0 -8 -6 -16 -13 -19 -15 -6 -50 17 -40 26 10
11 25 8 18 -3 -10 -17 4 -11 24 9 11 11 16 23 13 27 -4 3 3 2 15 -5 16 -8 22
-8 26 2z m-1565 -21 c3 -9 -2 -13 -14 -10 -9 1 -19 9 -22 16 -3 9 2 13 14 10
9 -1 19 -9 22 -16z m-923 -2 c-3 -5 -15 -10 -26 -10 -10 0 -19 5 -19 10 0 6
12 10 26 10 14 0 23 -4 19 -10z m2182 -8 c10 8 17 7 28 -8 13 -16 14 -17 9 -1
-3 9 -4 17 -1 17 3 0 10 -14 16 -31 9 -25 8 -30 -3 -26 -10 4 -12 0 -9 -14 3
-10 0 -19 -6 -19 -6 0 -13 11 -17 25 -3 14 -12 25 -19 25 -9 0 0 -27 27 -77
40 -76 66 -116 53 -80 -4 9 -3 17 3 17 12 0 38 -30 26 -30 -5 0 -2 -5 6 -10
13 -8 12 -10 -2 -10 -10 0 -18 -7 -18 -16 0 -8 5 -12 11 -8 8 4 9 0 4 -15 -4
-13 -2 -21 5 -21 7 0 9 -7 6 -16 -3 -8 3 -24 14 -36 11 -12 16 -26 13 -32 -4
-6 -8 -5 -11 4 -3 8 -8 17 -13 20 -4 3 -19 25 -34 50 -24 41 -26 42 -22 15 3
-16 9 -39 13 -50 6 -14 0 -12 -20 10 -15 17 -25 23 -23 14 3 -10 11 -35 18
-58 7 -23 16 -41 22 -41 5 0 7 -9 4 -20 -5 -20 6 -33 31 -36 22 -4 27 -14 8
-14 -14 0 -17 -5 -13 -22 4 -12 2 -27 -2 -32 -19 -24 -53 -92 -87 -174 -27
-65 -37 -103 -39 -152 -1 -36 -8 -95 -15 -131 -12 -59 -11 -75 3 -135 19 -77
22 -154 7 -154 -5 0 -10 6 -11 13 0 6 -11 -10 -24 -38 -20 -42 -24 -46 -24
-24 -1 15 -11 39 -23 54 -15 20 -18 30 -10 33 7 2 12 18 13 35 0 31 1 31 23
-17 31 -64 38 -43 30 83 l-7 98 -46 12 c-36 9 -56 23 -93 66 -27 29 -48 59
-48 65 0 12 -27 10 -61 -4 -12 -5 -18 -1 -22 16 -4 13 -7 27 -9 33 -2 5 4 10
12 11 37 2 42 5 36 19 -7 18 -2 18 49 1 23 -8 57 -12 80 -9 22 3 55 5 72 4 26
-1 34 3 37 22 6 24 26 162 26 173 0 11 -223 -6 -237 -18 -7 -6 -28 -7 -48 -4
-39 8 -58 37 -48 75 6 23 19 28 25 9 2 -6 14 5 26 25 12 21 28 37 37 37 8 0
15 5 15 11 0 6 8 8 19 4 13 -4 24 1 34 15 14 20 14 20 31 1 14 -15 23 -18 41
-11 12 5 42 7 66 4 l44 -4 -45 16 c-25 10 -47 21 -48 26 -2 4 -8 6 -13 2 -5
-3 -9 6 -9 21 0 30 24 43 45 25 8 -7 15 -8 15 -3 0 5 12 16 28 23 26 12 26 13
6 20 -12 5 -25 13 -28 19 -4 6 -14 7 -22 4 -12 -5 -13 -7 -3 -14 17 -10 -37
-33 -58 -24 -21 7 14 62 49 78 16 6 28 18 28 25 0 23 32 82 40 77 18 -11 19
17 4 88 -17 78 -14 121 8 99 9 -9 15 -9 25 0z m359 -29 c-11 -11 -17 4 -9 23
7 18 8 18 11 1 2 -10 1 -21 -2 -24z m-2485 4 c-10 -9 -11 -8 -5 6 3 10 9 15
12 12 3 -3 0 -11 -7 -18z m829 13 c0 -5 -4 -10 -10 -10 -5 0 -10 5 -10 10 0 6
5 10 10 10 6 0 10 -4 10 -10z m-1460 -25 c36 -10 71 -19 79 -21 11 -3 11 -7 1
-19 -24 -29 -180 15 -180 51 0 11 6 15 18 11 9 -2 46 -12 82 -22z m2945 -16
c4 -11 11 -17 16 -13 6 3 5 -3 -3 -15 -7 -12 -14 -17 -16 -11 -2 5 -11 10 -19
10 -9 0 -13 -6 -10 -14 4 -10 0 -12 -14 -9 -12 3 -19 0 -20 -8 0 -8 -4 -4 -10
9 -11 29 -32 18 -26 -14 3 -19 1 -22 -8 -14 -20 16 -24 47 -10 66 11 16 14 16
36 1 26 -19 39 -21 39 -8 0 5 -9 13 -20 16 -11 3 -20 11 -20 17 0 6 6 6 15 -2
8 -7 15 -9 15 -4 0 4 5 3 12 -4 19 -19 30 -14 18 7 -5 11 -10 23 -10 27 0 13
29 -18 35 -37z m-2260 13 c0 -18 -20 -15 -23 4 -3 10 1 15 10 12 7 -3 13 -10
13 -16z m3024 -4 c0 -13 3 -47 7 -76 7 -50 8 -53 31 -47 35 9 53 -11 53 -59
l0 -41 -50 3 c-52 4 -124 -14 -115 -28 3 -5 -1 -11 -7 -13 -7 -3 -2 -6 12 -6
14 -1 31 -10 38 -22 9 -13 19 -18 32 -14 10 3 22 0 26 -6 5 -9 11 -7 20 6 8
10 23 19 35 20 20 2 21 -2 14 -54 -4 -31 -13 -69 -22 -86 -8 -16 -25 -57 -38
-90 -52 -133 -115 -262 -144 -294 -30 -33 -32 -34 -98 -28 -80 6 -102 25 -129
112 -12 36 -21 51 -26 43 -6 -10 -8 -10 -8 -1 0 6 4 14 9 18 6 3 4 24 -5 53
-38 116 -60 320 -43 388 6 24 15 44 19 44 13 0 19 -26 10 -40 -11 -18 -3 -30
20 -30 10 0 20 -7 24 -15 6 -17 71 -21 81 -5 3 6 17 10 31 10 17 0 24 6 24 18
0 23 -56 42 -123 42 -44 0 -64 15 -49 36 13 18 63 45 72 39 6 -3 10 5 10 19 0
34 56 97 69 77 6 -10 13 -10 28 -3 10 6 47 10 81 9 53 -2 64 1 79 20 23 29 33
29 32 1z m-2385 -23 c6 -11 16 -24 23 -30 6 -5 13 -19 15 -30 2 -16 -3 -21
-27 -23 -48 -6 -49 -18 -6 -53 23 -18 41 -37 41 -43 0 -5 -12 -27 -26 -48 -20
-29 -30 -36 -40 -27 -9 8 -16 5 -25 -12 -12 -22 -12 -22 -50 22 -30 34 -41 41
-48 30 -5 -8 -14 -10 -21 -6 -7 5 -25 8 -39 9 -21 1 -27 7 -29 29 -4 33 13 36
23 5 7 -21 8 -20 12 10 4 31 25 43 38 22 3 -5 17 -10 30 -10 25 0 24 -3 40
100 9 59 24 81 51 78 15 -2 32 -12 38 -23z m3188 3 c-7 -7 -12 -8 -12 -2 0 14
12 26 19 19 2 -3 -1 -11 -7 -17z m-1400 -14 c-3 -19 -1 -25 7 -20 6 4 11 2 11
-3 0 -6 -11 -11 -25 -11 -25 0 -33 14 -15 25 5 3 7 12 3 20 -3 9 1 15 10 15
10 0 13 -8 9 -26z m760 -48 c-9 -18 -11 -16 -11 19 0 33 1 37 10 21 8 -12 8
-25 1 -40z m38 44 c0 -5 -5 -10 -11 -10 -5 0 -7 5 -4 10 3 6 8 10 11 10 2 0 4
-4 4 -10z m1397 -37 c-3 -10 -5 -2 -5 17 0 19 2 27 5 18 2 -10 2 -26 0 -35z
m-3891 22 c10 -8 14 -15 7 -15 -19 0 -43 11 -43 21 0 13 14 11 36 -6z m-851
-14 c3 -5 1 -12 -5 -16 -5 -3 -10 1 -10 9 0 18 6 21 15 7z m-562 -23 c35 -8
47 -16 45 -27 -7 -32 -122 -5 -131 31 -5 17 -2 19 16 14 12 -4 44 -12 70 -18z
m3063 -15 c-10 -10 -19 5 -10 18 6 11 8 11 12 0 2 -7 1 -15 -2 -18z m-2572 -4
c-8 -14 -24 -10 -24 6 0 9 6 12 15 9 8 -4 12 -10 9 -15z m1316 -4 c0 -7 9 -17
20 -20 17 -5 20 -15 20 -71 0 -35 -3 -64 -6 -64 -20 0 -44 25 -54 56 -13 39
-5 128 11 119 5 -4 9 -12 9 -20z m730 -20 c0 -12 -4 -25 -8 -30 -5 -6 -14 -30
-21 -55 -8 -25 -17 -56 -21 -70 -5 -16 -8 8 -8 64 -1 79 2 92 21 112 23 24 37
17 37 -21z m90 26 c0 -32 -19 -71 -34 -71 -8 0 -16 13 -18 31 -4 22 1 34 16
45 27 19 36 18 36 -5z m1524 -101 c20 0 39 -27 32 -45 -3 -9 -2 -13 4 -10 18
11 31 -5 20 -25 -8 -16 -5 -19 23 -25 17 -4 47 -16 65 -26 18 -10 50 -19 70
-19 20 0 48 -9 61 -19 31 -24 24 -53 -27 -112 -22 -24 -50 -69 -62 -99 -24
-57 -55 -98 -65 -88 -4 3 5 34 18 68 l25 61 -21 14 c-12 7 -40 17 -62 21 -48
8 -84 33 -85 56 0 9 -9 19 -19 23 -11 3 -23 14 -26 23 -3 9 -37 37 -76 62
-117 75 -122 81 -109 114 6 16 29 51 51 78 l41 48 64 -50 c35 -27 70 -50 78
-50z m116 85 c7 -8 8 -15 2 -15 -5 0 -15 7 -22 15 -7 8 -8 15 -2 15 5 0 15 -7
22 -15z m-3185 -25 c-5 -8 -11 -8 -17 -2 -6 6 -7 16 -3 22 5 8 11 8 17 2 6 -6
7 -16 3 -22z m379 -20 c31 -58 26 -83 -10 -49 -13 12 -24 17 -24 11 0 -22 -18
-12 -22 13 -7 35 2 75 17 75 6 0 24 -22 39 -50z m-1550 15 c3 -8 1 -15 -4 -15
-5 0 -10 -12 -12 -27 -3 -24 -8 -28 -33 -28 -26 0 -30 4 -31 30 0 17 3 36 9
43 13 17 64 15 71 -3z m3046 -5 c0 -5 -5 -10 -11 -10 -5 0 -7 5 -4 10 3 6 8
10 11 10 2 0 4 -4 4 -10z m-2957 -26 c18 -4 27 -13 27 -25 0 -21 -16 -24 -57
-8 -43 16 -62 57 -20 45 12 -4 34 -9 50 -12z m2994 -16 c-3 -8 -6 -5 -6 6 -1
11 2 17 5 13 3 -3 4 -12 1 -19z m256 -20 c-10 -21 -12 -21 -18 -5 -10 25 2 54
17 39 8 -8 8 -18 1 -34z m-2673 28 c0 -3 -4 -8 -10 -11 -5 -3 -10 -1 -10 4 0
6 5 11 10 11 6 0 10 -2 10 -4z m2605 -8 c14 -6 33 -28 42 -50 9 -21 20 -38 25
-38 4 0 8 -9 8 -20 0 -14 -5 -18 -16 -13 -15 5 -15 3 0 -25 9 -17 16 -38 16
-47 0 -22 -36 -19 -60 5 -11 11 -20 29 -20 40 0 17 -7 20 -40 20 -40 0 -54
-15 -25 -26 8 -4 15 -17 15 -30 0 -13 4 -24 8 -24 4 0 15 -13 25 -29 9 -15 35
-50 57 -77 44 -54 47 -62 25 -71 -22 -8 -107 72 -185 173 -25 33 -51 63 -57
67 -19 12 -16 42 7 62 11 10 20 24 20 32 0 8 11 25 25 38 27 28 85 34 130 13z
m-2615 -28 c0 -5 -2 -10 -4 -10 -3 0 -8 5 -11 10 -3 6 -1 10 4 10 6 0 11 -4
11 -10z m2861 0 c5 0 9 -4 9 -10 0 -12 -47 -13 -54 -1 -8 12 6 22 22 16 7 -3
18 -5 23 -5z m-528 -25 c-3 -9 -8 -14 -10 -11 -3 3 -2 9 2 15 9 16 15 13 8 -4z
m857 -8 c0 -9 -11 -12 -36 -9 -25 3 -32 7 -23 13 21 13 59 11 59 -4z m-2618
-32 c6 -13 14 -22 19 -20 4 3 10 1 13 -4 4 -5 2 -12 -4 -16 -5 -3 -7 -19 -3
-36 5 -24 3 -28 -11 -23 -9 3 -16 15 -16 26 0 12 -5 18 -13 15 -17 -6 -61 39
-47 48 8 5 8 11 -1 21 -9 12 -6 14 20 14 24 0 34 -6 43 -25z m4094 10 c4 -8
14 -15 24 -15 10 0 21 -9 25 -19 7 -23 -20 -95 -33 -87 -5 3 -16 -10 -25 -29
-9 -19 -24 -35 -33 -35 -15 0 -16 -13 -10 -122 l6 -123 -24 67 c-23 66 -24 75
-5 147 3 10 -8 17 -33 21 -35 6 -37 5 -32 -16 8 -31 -4 -64 -23 -64 -12 0 -14
7 -8 38 4 20 10 42 15 47 4 6 15 36 24 67 9 31 25 63 36 71 10 7 24 25 29 40
8 20 18 27 36 27 14 0 28 -7 31 -15z m-4599 -27 c-3 -7 -5 -2 -5 12 0 14 2 19
5 13 2 -7 2 -19 0 -25z m801 4 c2 -7 -1 -12 -7 -12 -6 0 -11 -6 -11 -14 0 -17
-34 -10 -51 10 -9 12 -8 17 7 28 19 15 55 7 62 -12z m2418 -29 c-4 -21 -12
-54 -19 -73 l-12 -35 -5 40 c-4 26 0 52 10 72 20 44 34 41 26 -4z m-4021 17
c-3 -5 -15 -10 -26 -10 -11 0 -17 5 -14 10 3 6 15 10 26 10 11 0 17 -4 14 -10z
m3048 -14 c4 -10 1 -13 -8 -9 -8 3 -12 9 -9 14 7 12 11 11 17 -5z m-2933 -16
c0 -5 -2 -10 -4 -10 -3 0 -8 5 -11 10 -3 6 -1 10 4 10 6 0 11 -4 11 -10z m480
-9 c0 -17 -18 -21 -24 -6 -3 9 0 15 9 15 8 0 15 -4 15 -9z m4048 -46 c0 -16
-2 -15 -8 5 -11 34 -11 60 0 35 5 -11 8 -29 8 -40z m-1437 -16 c12 -13 36 -47
55 -75 19 -28 53 -72 75 -98 42 -48 46 -76 10 -76 -11 0 -21 -6 -24 -12 -5
-14 -74 46 -109 95 -35 48 -11 41 42 -13 29 -28 55 -48 59 -45 3 4 -13 23 -35
44 -23 20 -56 63 -74 96 -18 33 -36 65 -39 70 -4 6 -12 22 -18 37 -11 26 -11
26 13 13 13 -7 34 -23 45 -36z m-3088 21 c-3 -12 -8 -19 -11 -16 -5 6 5 36 12
36 2 0 2 -9 -1 -20z m2987 -10 c-19 -13 -30 -13 -30 0 0 6 10 10 23 10 18 0
19 -2 7 -10z m956 -16 c-3 -9 -6 -22 -6 -29 0 -8 -9 -13 -20 -12 -11 1 -20 2
-20 3 0 19 23 54 36 54 11 0 14 -5 10 -16z m-3376 -14 c0 -5 -4 -10 -10 -10
-5 0 -10 5 -10 10 0 6 5 10 10 10 6 0 10 -4 10 -10z m3507 -55 c40 -11 90
-116 60 -128 -32 -12 -61 18 -94 98 -39 94 -40 98 -10 63 12 -14 32 -29 44
-33z m1650 33 c-3 -8 -6 -5 -6 6 -1 11 2 17 5 13 3 -3 4 -12 1 -19z m-5127 2
c0 -5 -2 -10 -4 -10 -3 0 -8 5 -11 10 -3 6 -1 10 4 10 6 0 11 -4 11 -10z
m-129 -27 c-8 -15 -10 -15 -11 -2 0 17 10 32 18 25 2 -3 -1 -13 -7 -23z m3350
-46 c-29 -67 -33 -58 -8 16 12 34 23 55 25 46 1 -8 -6 -37 -17 -62z m-3351 13
c0 -5 -4 -10 -10 -10 -5 0 -10 5 -10 10 0 6 5 10 10 10 6 0 10 -4 10 -10z
m645 -20 c3 -5 1 -10 -4 -10 -6 0 -11 5 -11 10 0 6 2 10 4 10 3 0 8 -4 11 -10z
m2796 -12 c11 -20 14 -86 5 -95 -1 -2 -23 7 -47 19 -24 13 -45 24 -47 25 -8 3
34 43 46 43 7 0 15 7 18 15 8 20 11 19 25 -7z m-3441 -22 c0 -3 -4 -8 -10 -11
-5 -3 -10 -1 -10 4 0 6 5 11 10 11 6 0 10 -2 10 -4z m26 -23 c-10 -10 -19 5
-10 18 6 11 8 11 12 0 2 -7 1 -15 -2 -18z m340 13 c8 -8 14 -20 14 -27 0 -7
-9 -4 -20 9 -29 31 -24 48 6 18z m64 -42 c0 -8 -6 -11 -15 -8 -8 4 -15 12 -15
20 0 8 6 11 15 8 8 -4 15 -12 15 -20z m3650 -9 c0 -31 -9 -45 -71 -105 -57
-56 -69 -73 -60 -84 9 -11 6 -15 -14 -18 -14 -3 -28 -2 -31 3 -12 20 83 171
139 222 28 25 37 21 37 -18z m-2147 -42 c-3 -27 -14 -73 -25 -103 -11 -30 -25
-79 -31 -107 -5 -29 -13 -53 -17 -53 -6 0 -81 45 -146 88 -10 7 -34 19 -52 27
-44 21 -112 83 -112 104 0 9 -5 22 -12 29 -20 20 1 26 24 6 12 -10 18 -13 14
-6 -4 7 -2 12 5 12 8 0 8 4 -1 15 -21 25 3 16 53 -21 26 -19 45 -39 42 -44 -3
-5 0 -7 8 -4 8 3 23 -6 35 -20 22 -29 34 -34 26 -11 -5 12 2 15 28 15 42 0
106 40 137 86 13 19 25 34 27 34 2 0 0 -21 -3 -47z m-1518 -1 c-8 -9 -25 20
-18 31 3 5 10 2 15 -7 6 -10 7 -20 3 -24z m4867 -60 c13 -15 4 -27 -11 -17 -6
3 -10 32 -9 63 1 54 2 54 5 12 3 -24 9 -50 15 -58z m-4772 84 c0 -3 -4 -8 -10
-11 -5 -3 -10 -1 -10 4 0 6 5 11 10 11 6 0 10 -2 10 -4z m2765 -35 c-8 -17
-18 -31 -21 -31 -3 0 -4 3 -2 8 21 43 32 61 35 58 3 -2 -3 -18 -12 -35z m97
20 c-8 -4 -12 -12 -10 -17 1 -5 -7 -10 -19 -12 -13 -2 -23 2 -23 8 0 6 10 15
23 20 28 11 46 12 29 1z m98 -31 c0 -13 -1 -13 -10 0 -5 8 -10 22 -10 30 0 13
1 13 10 0 5 -8 10 -22 10 -30z m1440 -55 c34 -35 34 -35 9 -35 -13 0 -33 -3
-45 -6 -18 -5 -22 0 -28 26 -12 61 14 66 64 15z m-4747 -90 c14 -44 32 -114
41 -155 10 -41 21 -92 25 -112 11 -48 6 -50 -149 -48 -69 2 -138 2 -153 2
l-28 -1 50 60 c28 34 51 70 52 82 1 37 8 67 24 97 8 16 15 36 15 44 0 8 7 22
16 31 14 14 14 18 1 39 -14 20 -14 26 -2 43 13 18 18 19 49 9 33 -10 37 -16
59 -91z m5112 45 c3 -5 3 -15 -1 -21 -6 -11 -23 6 -24 24 0 10 18 9 25 -3z
m-2451 -67 c17 -14 30 -33 28 -40 -2 -8 7 -36 19 -61 26 -55 28 -115 5 -212
-8 -36 -22 -128 -31 -205 -10 -77 -21 -144 -25 -148 -9 -10 -166 -14 -176 -5
-4 4 3 58 15 119 22 107 22 111 4 124 -14 11 -16 16 -5 26 10 11 12 10 12 -4
0 -9 5 -17 10 -17 6 0 10 21 10 47 0 37 -3 44 -12 35 -16 -16 -28 -15 -28 1 0
8 -8 21 -18 30 -18 17 -27 66 -17 98 7 21 35 26 36 7 0 -10 2 -10 6 0 4 9 8
10 18 2 10 -9 17 8 34 80 12 50 21 106 21 124 0 18 3 35 6 39 9 9 54 -11 88
-40z m2451 7 c3 -5 1 -10 -4 -10 -6 0 -11 5 -11 10 0 6 2 10 4 10 3 0 8 -4 11
-10z m7 -90 c2 -22 0 -40 -4 -40 -5 0 -8 18 -8 40 0 22 2 40 4 40 2 0 6 -18 8
-40z m-5502 5 c0 -8 -4 -15 -10 -15 -5 0 -10 7 -10 15 0 8 5 15 10 15 6 0 10
-7 10 -15z m2353 2 c3 -8 1 -20 -3 -27 -5 -8 -3 -25 4 -39 7 -14 16 -39 20
-54 6 -24 3 -30 -14 -34 -15 -4 -19 -11 -15 -22 4 -9 16 -40 27 -69 11 -29 22
-52 24 -50 2 2 -6 30 -18 61 l-21 58 21 20 c12 11 22 24 22 29 0 18 49 10 60
-9 14 -26 13 -38 -2 -23 -18 18 -24 15 -47 -17 l-21 -28 32 -84 c17 -46 37
-100 44 -119 21 -56 16 -82 -7 -35 -11 22 -17 31 -14 20 4 -11 9 -41 12 -66 5
-40 2 -47 -18 -61 -14 -8 -39 -19 -57 -22 -30 -7 -32 -6 -32 21 0 59 -51 247
-95 351 -25 60 -43 115 -40 123 3 8 25 20 49 27 34 9 45 17 50 37 7 27 30 34
39 12z m-204 -33 c3 -16 1 -17 -13 -5 -19 16 -21 34 -3 29 6 -3 14 -13 16 -24z
m-213 -8 c6 -15 47 -28 93 -30 13 -1 36 -16 52 -34 23 -26 29 -42 29 -80 0
-59 24 -177 50 -242 12 -30 22 -85 25 -131 l4 -80 -42 -20 c-23 -10 -61 -19
-84 -19 l-43 0 0 98 c0 108 -13 172 -35 172 -10 0 -15 11 -15 34 0 56 -19 138
-44 191 -14 28 -27 63 -31 78 -3 16 -16 32 -30 39 -31 14 -32 25 -2 31 46 9
68 7 73 -7z m453 -22 c3 -16 1 -17 -13 -5 -19 16 -21 34 -3 29 6 -3 14 -13 16
-24z m-516 -128 c38 -9 67 -60 65 -114 -1 -45 -21 -54 -26 -11 -9 84 -28 94
-28 15 1 -30 4 -52 8 -50 6 4 28 -27 28 -40 0 -3 -14 -6 -31 -6 -30 0 -31 2
-26 30 5 23 2 32 -13 40 -25 13 -50 72 -50 115 0 33 16 49 35 35 6 -4 23 -10
38 -14z m-1450 -115 c15 -15 21 -161 6 -161 -6 0 -3 -7 5 -16 9 -8 14 -20 11
-25 -4 -5 -3 -14 1 -20 4 -8 9 -7 15 2 6 10 9 8 9 -8 0 -25 -10 -29 -28 -11
-9 9 -12 9 -12 -2 0 -9 -13 -1 -30 19 -37 41 -39 27 -4 -24 20 -30 23 -40 12
-46 -10 -7 -9 -9 5 -9 9 0 17 -4 17 -10 0 -5 -5 -10 -11 -10 -8 0 -8 -5 1 -15
17 -21 -4 -19 -25 1 -12 12 -19 14 -27 6 -8 -8 -6 -13 8 -19 51 -19 58 -37 56
-140 -3 -105 -8 -114 -57 -112 -47 2 -61 -1 -50 -9 6 -4 10 -13 10 -21 0 -8 6
-16 13 -18 6 -3 12 2 12 11 0 10 9 16 26 16 22 0 24 -3 19 -22 -4 -13 -10 -26
-14 -30 -12 -13 -70 21 -86 52 -14 28 -14 36 -1 93 9 34 16 85 16 112 0 28 0
61 1 75 0 14 0 100 -1 192 l-1 167 46 -3 c25 -1 51 -8 58 -15z m-134 -113 c-1
-85 -4 -111 -9 -84 -4 21 -13 43 -21 48 -11 8 -10 9 4 4 13 -4 17 0 17 19 0
14 -4 25 -10 25 -5 0 -10 8 -10 18 0 15 2 15 11 2 8 -12 9 -10 7 10 -2 19 -10
26 -30 28 -16 2 -28 8 -28 13 0 5 -7 9 -15 9 -26 0 -16 19 13 23 78 12 72 21
71 -115z m-249 103 c0 -5 -11 -11 -25 -13 -20 -4 -23 -3 -14 8 13 16 39 19 39
5z m2490 -119 c-13 -90 -37 -130 -28 -46 3 27 3 58 -1 68 -4 11 0 39 8 62 14
40 16 42 24 21 5 -13 4 -56 -3 -105z m-570 71 c0 -10 -20 -40 -20 -31 0 3 -3
13 -6 22 -4 11 -1 16 10 16 9 0 16 -3 16 -7z m-1800 -27 c0 -9 -30 -14 -35 -6
-4 6 3 10 14 10 12 0 21 -2 21 -4z m800 -84 c36 -25 67 -47 70 -50 3 -2 -53
-2 -125 2 -71 4 -133 10 -137 14 -4 4 13 29 38 55 51 55 43 56 154 -21z m3740
-97 c-14 -17 -20 -18 -39 -6 -12 8 -12 13 3 36 l18 27 15 -21 c12 -17 12 -25
3 -36z m-4506 4 c-8 -14 -34 -11 -34 4 0 8 3 17 7 20 9 9 34 -13 27 -24z m93
-1 c-3 -8 -6 -5 -6 6 -1 11 2 17 5 13 3 -3 4 -12 1 -19z m-27 2 c0 -5 -4 -10
-9 -10 -6 0 -13 5 -16 10 -3 6 1 10 9 10 9 0 16 -4 16 -10z m2510 0 c0 -5 -4
-10 -10 -10 -5 0 -10 5 -10 10 0 6 5 10 10 10 6 0 10 -4 10 -10z m2047 -9 c14
-23 -2 -43 -27 -32 -20 8 -24 32 -8 42 19 12 22 11 35 -10z m-4530 -58 c-3
-10 -5 -2 -5 17 0 19 2 27 5 18 2 -10 2 -26 0 -35z m2175 -27 c12 -58 12 -58
-15 -80 -22 -18 -27 -30 -27 -66 0 -72 -16 -79 -28 -13 -26 140 -26 137 7 171
17 17 31 38 31 48 0 36 20 -2 32 -60z m538 35 c0 -15 -39 -19 -51 -5 -9 11 -6
14 20 14 17 0 31 -4 31 -9z m-2360 -41 c0 -5 -4 -10 -10 -10 -5 0 -10 5 -10
10 0 6 5 10 10 10 6 0 10 -4 10 -10z m2486 -46 c-19 -18 -20 -14 -4 23 9 22
12 24 15 11 3 -10 -3 -25 -11 -34z m-2832 1 c3 -8 1 -15 -4 -15 -6 0 -10 7
-10 15 0 8 2 15 4 15 2 0 6 -7 10 -15z m2412 -50 c-9 -9 -16 -13 -16 -8 0 12
22 34 28 28 2 -2 -3 -11 -12 -20z m453 -25 c0 -11 -3 -10 -14 4 -8 11 -15 27
-15 35 0 11 4 10 15 -5 8 -10 14 -26 14 -34z m-662 -12 c-3 -7 -5 -2 -5 12 0
14 2 19 5 13 2 -7 2 -19 0 -25z m-2037 -48 c0 -5 -2 -10 -4 -10 -3 0 -8 5 -11
10 -3 6 -1 10 4 10 6 0 11 -4 11 -10z m2000 -9 c0 -5 -7 -14 -15 -21 -12 -10
-15 -10 -15 2 0 8 3 18 7 21 9 10 23 9 23 -2z m560 -32 c0 -6 -4 -7 -10 -4 -5
3 -10 11 -10 16 0 6 5 7 10 4 6 -3 10 -11 10 -16z m26 -35 c3 -15 7 -31 10
-36 3 -4 2 -8 -3 -8 -12 0 -29 43 -25 63 5 24 12 17 18 -19z m-46 -3 c-1 -25
-1 -25 -15 -7 -14 19 -15 19 -15 1 0 -10 -3 -16 -6 -12 -10 10 6 44 21 44 10
0 15 -10 15 -26z m-584 -66 c-9 -21 -16 -46 -16 -56 0 -11 -4 -19 -10 -19 -14
0 -13 5 12 89 17 53 24 66 26 48 2 -14 -4 -42 -12 -62z m1094 29 c0 -2 -7 -4
-15 -4 -8 0 -15 4 -15 10 0 5 7 7 15 4 8 -4 15 -8 15 -10z m-160 -17 c0 -20
-21 -41 -63 -67 -43 -25 -47 -24 -50 15 -2 21 3 28 18 30 11 1 34 9 50 18 37
20 45 21 45 4z m-550 -7 c-13 -9 -13 -10 0 -10 13 0 13 -1 0 -10 -9 -6 -17 -5
-22 3 -7 11 8 27 27 27 6 0 3 -5 -5 -10z m-560 -45 c0 -5 -5 -3 -10 5 -5 8
-10 20 -10 25 0 6 5 3 10 -5 5 -8 10 -19 10 -25z m630 10 c0 -9 -6 -12 -16 -8
-13 5 -13 7 -2 14 17 11 18 11 18 -6z m-660 -42 c-11 -17 -11 -17 -6 0 3 10 6
24 7 30 0 9 2 9 5 0 3 -7 0 -20 -6 -30z m620 -12 l-1 -26 -19 24 c-21 25 -18
44 5 34 8 -3 15 -17 15 -32z m-659 -4 c-10 -9 -11 -8 -5 6 3 10 9 15 12 12 3
-3 0 -11 -7 -18z m690 -37 c5 0 9 -4 9 -10 0 -5 -7 -10 -15 -10 -11 0 -15 11
-13 43 1 36 2 38 5 10 2 -18 8 -33 14 -33z m-36 0 c3 -5 1 -10 -4 -10 -6 0
-11 5 -11 10 0 6 2 10 4 10 3 0 8 -4 11 -10z m-112 -20 c3 -11 1 -23 -4 -26
-5 -3 -9 6 -9 20 0 31 6 34 13 6z m897 -45 c0 -55 -4 -62 -27 -47 -9 6 -8 19
5 55 9 26 18 47 19 47 2 0 3 -25 3 -55z m657 -7 c-3 -7 -5 -2 -5 12 0 14 2 19
5 13 2 -7 2 -19 0 -25z m153 -28 c0 -5 6 -9 13 -7 6 1 11 -4 9 -12 -2 -8 3
-11 12 -8 9 4 18 2 21 -3 8 -14 -8 -18 -32 -9 -24 9 -51 49 -33 49 5 0 10 -4
10 -10z m-143 -37 c-3 -10 -5 -4 -5 12 0 17 2 24 5 18 2 -7 2 -21 0 -30z
m-1072 18 c3 -5 1 -12 -5 -16 -5 -3 -10 1 -10 9 0 18 6 21 15 7z m1772 -87
c-3 -3 -12 -4 -19 -1 -8 3 -5 6 6 6 11 1 17 -2 13 -5z m-3020 -20 c-3 -3 -12
-4 -19 -1 -8 3 -5 6 6 6 11 1 17 -2 13 -5z"/>
<path d="M5791 3648 c0 -16 2 -18 6 -8 3 8 11 18 17 22 7 5 4 8 -6 8 -12 0
-18 -7 -17 -22z"/>
<path d="M5310 3480 c0 -5 5 -10 11 -10 5 0 7 5 4 10 -3 6 -8 10 -11 10 -2 0
-4 -4 -4 -10z"/>
<path d="M2750 3460 c-13 -8 -13 -10 2 -10 9 0 20 5 23 10 8 13 -5 13 -25 0z"/>
<path d="M2800 3410 c0 -5 5 -10 11 -10 5 0 7 5 4 10 -3 6 -8 10 -11 10 -2 0
-4 -4 -4 -10z"/>
<path d="M3785 3333 c-45 -11 -54 -46 -15 -58 22 -7 67 13 74 32 12 30 -8 38
-59 26z"/>
<path d="M3791 3213 c8 -9 14 -26 14 -37 0 -16 6 -21 25 -21 20 0 26 6 28 26
3 22 -2 29 -29 38 -44 15 -54 14 -38 -6z"/>
<path d="M3704 3207 c3 -10 9 -36 12 -56 6 -35 8 -37 36 -33 26 4 28 6 14 14
-16 9 -16 11 4 25 20 14 21 17 6 25 -9 5 -21 6 -27 2 -7 -4 -21 4 -31 17 -15
18 -18 19 -14 6z"/>
<path d="M3687 2971 c-2 -10 -1 -24 3 -31 6 -10 19 17 20 43 0 15 -18 6 -23
-12z"/>
<path d="M4294 2865 c-22 -53 -22 -52 36 -125 l19 -25 1 67 c0 65 -14 118 -32
118 -5 0 -16 -16 -24 -35z"/>
<path d="M3550 2798 c0 -8 7 -23 15 -34 14 -19 14 -19 15 2 0 12 -7 27 -15 34
-12 10 -15 10 -15 -2z"/>
<path d="M3932 2744 c10 -10 20 -15 24 -12 3 4 -5 12 -18 18 -22 12 -22 12 -6
-6z"/>
<path d="M3549 2713 c-13 -16 -12 -17 4 -4 16 13 21 21 13 21 -2 0 -10 -8 -17
-17z"/>
<path d="M4049 2710 c-34 -18 -60 -60 -37 -60 6 0 7 -7 4 -16 -3 -8 -2 -12 4
-9 9 6 32 -36 28 -53 -1 -4 2 -16 7 -27 35 -87 34 -83 17 -90 -15 -6 -13 -10
11 -31 15 -13 32 -24 36 -24 12 0 17 53 13 118 -4 51 -5 53 -23 36 -10 -9 -25
-14 -34 -11 -22 9 -18 27 6 24 28 -3 57 37 65 90 6 39 4 42 -24 57 -37 19 -29
19 -73 -4z m69 -57 c-6 -7 -7 -20 -4 -29 5 -14 4 -15 -9 -4 -11 9 -18 10 -29
1 -22 -19 -30 44 -9 67 17 16 19 16 40 -3 15 -14 19 -23 11 -32z"/>
<path d="M4155 2720 c3 -5 8 -10 11 -10 2 0 4 5 4 10 0 6 -5 10 -11 10 -5 0
-7 -4 -4 -10z"/>
<path d="M3969 2711 c7 -5 17 -15 22 -22 6 -10 9 -8 9 9 0 16 -6 22 -22 22
-17 0 -19 -3 -9 -9z"/>
<path d="M4240 2628 c0 -74 12 -101 27 -62 5 13 14 15 46 10 22 -4 49 -13 60
-21 27 -19 37 -19 37 0 0 8 -6 15 -14 15 -8 0 -20 16 -27 35 -13 36 -29 47
-29 20 0 -22 -5 -19 -54 33 l-46 47 0 -77z"/>
<path d="M4171 2471 c-8 -5 -9 -11 -3 -15 5 -3 12 1 16 9 6 17 6 18 -13 6z"/>
<path d="M5837 2933 c-12 -11 -8 -23 8 -23 16 0 20 -12 8 -24 -11 -10 -43
-118 -42 -141 0 -11 8 7 18 40 10 33 28 80 39 105 20 43 21 70 1 40 -7 -12
-11 -12 -17 -2 -5 7 -11 9 -15 5z"/>
<path d="M4265 3270 c3 -5 8 -10 11 -10 2 0 4 5 4 10 0 6 -5 10 -11 10 -5 0
-7 -4 -4 -10z"/>
<path d="M2880 2589 c-11 -19 -10 -20 9 -9 22 11 29 30 11 30 -5 0 -14 -9 -20
-21z"/>
<path d="M2800 2595 c0 -2 10 -10 23 -16 20 -11 21 -11 8 4 -13 16 -31 23 -31
12z"/>
<path d="M2907 2543 c-7 -35 -2 -42 22 -36 28 7 35 33 14 49 -26 19 -30 17
-36 -13z"/>
<path d="M2875 2480 c-3 -5 3 -10 14 -10 12 0 21 5 21 10 0 6 -6 10 -14 10 -8
0 -18 -4 -21 -10z"/>
<path d="M2900 2405 c-13 -14 -19 -25 -13 -25 12 0 48 38 41 45 -2 3 -15 -6
-28 -20z"/>
<path d="M1950 2870 c0 -5 5 -10 11 -10 5 0 7 5 4 10 -3 6 -8 10 -11 10 -2 0
-4 -4 -4 -10z"/>
<path d="M2243 2293 c-24 -5 -38 -29 -21 -39 6 -4 17 2 25 12 13 18 15 18 24
2 6 -11 16 -15 27 -11 23 9 42 29 35 37 -7 6 -54 6 -90 -1z"/>
<path d="M2608 2292 c-10 -2 -18 -11 -19 -20 0 -14 -2 -13 -9 3 -6 14 -9 15
-9 5 -2 -29 21 -42 41 -23 17 15 18 15 18 0 0 -17 21 -23 33 -11 8 9 -9 41
-25 46 -7 2 -21 3 -30 0z"/>
<path d="M2385 2110 c3 -5 13 -10 21 -10 8 0 12 5 9 10 -3 6 -13 10 -21 10 -8
0 -12 -4 -9 -10z"/>
<path d="M2490 2105 c-8 -9 -8 -15 -2 -15 18 0 42 12 42 21 0 14 -26 10 -40
-6z"/>
<path d="M2313 2013 c-8 -2 -13 -22 -13 -44 0 -35 2 -39 26 -39 14 0 41 -7 60
-16 32 -15 36 -15 53 0 11 10 33 15 60 14 51 -2 84 24 75 60 -4 12 -13 22 -21
22 -11 0 -13 -7 -9 -24 5 -22 2 -24 -50 -30 -31 -3 -78 -4 -104 0 -40 5 -47 9
-43 25 4 14 0 19 -13 19 -16 0 -17 2 -4 10 16 10 4 12 -17 3z"/>
<path d="M2672 1980 c-7 -11 -12 -25 -12 -32 1 -7 8 0 16 15 18 33 14 46 -4
17z"/>
<path d="M4915 2450 c-3 -5 1 -10 9 -10 9 0 16 5 16 10 0 6 -4 10 -9 10 -6 0
-13 -4 -16 -10z"/>
<path d="M4883 2418 c-23 -30 -24 -41 -2 -21 12 12 20 25 17 28 -3 3 -10 0
-15 -7z"/>
<path d="M5092 2328 c4 -12 26 -20 80 -32 15 -4 43 -20 62 -36 21 -19 37 -27
41 -20 9 15 -45 75 -81 88 -41 16 -107 16 -102 0z"/>
<path d="M4867 2283 c-3 -5 6 -21 18 -38 20 -24 25 -26 30 -13 4 10 4 22 0 27
-9 16 -43 32 -48 24z"/>
<path d="M4782 2220 c-17 -27 -15 -40 6 -40 10 0 24 -6 31 -12 11 -10 13 -10
7 0 -4 7 -1 12 8 12 19 0 21 31 4 48 -18 18 -42 15 -56 -8z"/>
<path d="M5096 2213 c-12 -12 -6 -44 9 -49 15 -6 45 11 45 26 0 10 -47 30 -54
23z"/>
<path d="M5175 2180 c-3 -5 -1 -10 4 -10 6 0 11 5 11 10 0 6 -2 10 -4 10 -3 0
-8 -4 -11 -10z"/>
<path d="M4820 2109 c0 -12 8 -28 18 -36 15 -13 15 -14 1 -10 -13 4 -15 1 -12
-14 3 -12 -1 -21 -11 -25 -20 -8 -46 -55 -46 -82 0 -37 67 -65 96 -41 17 14
61 1 82 -25 9 -13 31 -25 49 -29 26 -5 32 -3 37 16 3 12 0 27 -7 32 -25 22
-177 73 -177 60 0 -4 5 -15 10 -26 9 -17 7 -19 -19 -19 -23 0 -30 5 -36 27 -5
20 -2 31 11 40 10 7 26 33 35 58 14 38 15 46 3 56 -8 6 -14 18 -14 25 0 8 -4
14 -10 14 -5 0 -10 -10 -10 -21z"/>
<path d="M2991 2123 c-1 -12 4 -25 9 -28 12 -7 12 2 0 30 -8 19 -9 19 -9 -2z"/>
<path d="M2990 1965 c0 -16 -2 -17 -10 -5 -11 18 -23 9 -15 -12 4 -10 14 -14
27 -10 14 3 19 1 14 -6 -4 -7 -16 -12 -27 -12 -10 0 -19 -4 -19 -10 0 -16 50
-12 56 4 3 8 -1 27 -10 43 -13 23 -15 25 -16 8z"/>
<path d="M3036 1912 c-4 -13 -5 -26 -2 -29 10 -11 18 4 14 29 l-4 23 -8 -23z"/>
<path d="M3750 1880 c0 -5 5 -10 11 -10 5 0 7 5 4 10 -3 6 -8 10 -11 10 -2 0
-4 -4 -4 -10z"/>
<path d="M3830 1860 l-25 -20 32 11 c18 6 30 15 27 20 -7 11 -5 12 -34 -11z"/>
<path d="M3666 1785 c-8 -21 3 -45 19 -39 7 3 35 -1 61 -9 89 -26 172 -7 162
36 -3 14 -10 13 -50 -8 -52 -26 -74 -24 -141 14 -45 25 -43 25 -51 6z"/>
<path d="M110 2131 c0 -6 5 -13 10 -16 6 -3 10 1 10 9 0 9 -4 16 -10 16 -5 0
-10 -4 -10 -9z"/>
<path d="M3291 1193 c0 -5 4 -17 9 -28 8 -18 9 -17 9 8 1 15 -3 27 -9 27 -5 0
-10 -3 -9 -7z"/>
<path d="M2861 1035 c0 -5 6 -21 14 -35 8 -14 14 -20 14 -15 0 6 -6 21 -14 35
-8 14 -14 21 -14 15z"/>
<path d="M2310 1073 c0 -13 5 -23 10 -23 13 0 13 11 0 30 -8 12 -10 11 -10 -7z"/>
<path d="M2877 688 c-5 -37 -3 -43 12 -33 13 8 15 65 2 65 -5 0 -11 -15 -14
-32z"/>
<path d="M4190 3892 c0 -5 11 -19 25 -32 20 -19 25 -20 25 -8 0 30 -12 48 -31
48 -10 0 -19 -4 -19 -8z"/>
<path d="M4270 3884 c0 -8 5 -12 10 -9 6 3 10 10 10 16 0 5 -4 9 -10 9 -5 0
-10 -7 -10 -16z"/>
<path d="M2385 3881 c-10 -17 10 -20 35 -5 l25 13 -27 1 c-15 0 -29 -4 -33 -9z"/>
<path d="M430 3841 c-8 -6 -18 -7 -22 -5 -4 3 -8 -7 -9 -23 0 -15 -2 -63 -3
-105 -2 -43 -2 -78 -1 -78 10 0 39 105 44 158 4 34 6 62 6 62 0 0 -7 -4 -15
-9z"/>
<path d="M2277 3843 c-13 -13 -7 -29 12 -30 14 -1 17 3 14 18 -5 20 -15 24
-26 12z"/>
<path d="M2296 3725 c4 -8 8 -15 10 -15 2 0 4 7 4 15 0 8 -4 15 -10 15 -5 0
-7 -7 -4 -15z"/>
<path d="M910 2954 c0 -23 3 -44 7 -47 3 -4 8 -17 9 -30 1 -12 5 -35 8 -52 4
-16 3 -24 0 -17 -10 20 -26 14 -24 -10 5 -52 1 -61 -16 -47 -14 12 -15 35 -3
78 7 23 -19 24 -31 1 -9 -17 -8 -30 4 -61 29 -72 12 -99 -20 -31 -9 20 -19 31
-22 24 -2 -7 5 -27 15 -45 11 -18 23 -45 27 -61 4 -16 14 -35 21 -43 17 -16
20 -49 6 -58 -5 -3 -12 3 -14 12 -4 14 -5 13 -6 -4 -1 -22 35 -57 50 -48 4 3
10 -6 13 -20 4 -14 12 -25 19 -25 7 0 14 -10 14 -22 1 -13 7 -24 12 -26 6 -2
24 -27 41 -55 38 -66 77 -113 86 -105 3 4 -6 29 -21 55 -51 89 -95 176 -92
180 2 2 16 -14 30 -34 39 -55 33 -23 -12 60 -52 95 -56 113 -35 134 15 16 18
15 37 -13 12 -16 43 -51 70 -79 l48 -50 -61 93 c-33 50 -65 92 -71 92 -5 0 -7
5 -3 11 4 7 19 -2 41 -23 40 -37 35 -21 -16 55 -45 66 -73 136 -88 212 -7 40
-23 40 -23 -1z m-11 -287 c12 -15 12 -17 -3 -11 -9 3 -16 13 -16 22 0 8 1 13
3 11 1 -2 9 -12 16 -22z m71 -130 c0 -5 -4 -5 -10 -2 -5 3 -10 14 -10 23 0 15
2 15 10 2 5 -8 10 -19 10 -23z"/>
<path d="M1623 2942 c-20 -13 -33 -58 -20 -71 8 -8 9 -14 1 -19 -11 -8 -12
-157 -1 -168 4 -4 7 10 7 32 0 21 4 55 10 74 8 30 22 160 17 160 -1 0 -7 -4
-14 -8z"/>
<path d="M1322 2919 c2 -6 8 -10 13 -10 5 0 11 4 13 10 2 6 -4 11 -13 11 -9 0
-15 -5 -13 -11z"/>
<path d="M1261 2883 c-8 -9 -25 -13 -43 -11 -17 3 -27 0 -25 -6 2 -6 19 -12
38 -14 19 -1 46 -7 61 -13 37 -15 52 -4 32 25 -19 30 -45 37 -63 19z"/>
<path d="M1408 2863 c7 -3 16 -2 19 1 4 3 -2 6 -13 5 -11 0 -14 -3 -6 -6z"/>
<path d="M1518 2849 c-10 -10 -15 -25 -12 -34 4 -9 -3 -23 -17 -33 -25 -21
-18 -45 11 -40 10 2 27 -6 39 -16 17 -15 24 -17 34 -7 9 9 7 13 -11 17 -23 7
-30 28 -12 39 8 5 7 11 -1 21 -6 8 -9 27 -7 44 5 34 0 36 -24 9z"/>
<path d="M1060 2850 c0 -6 4 -18 9 -28 5 -9 17 -34 25 -54 19 -42 42 -64 31
-28 -4 12 -8 29 -9 36 -1 7 -5 17 -9 20 -4 4 -7 15 -7 25 0 10 -9 23 -20 29
-14 7 -20 7 -20 0z"/>
<path d="M1670 2809 c0 -5 5 -7 10 -4 6 3 10 8 10 11 0 2 -4 4 -10 4 -5 0 -10
-5 -10 -11z"/>
<path d="M1257 2763 c-11 -11 -8 -61 4 -69 8 -4 7 -9 -2 -16 -11 -8 -10 -9 2
-5 9 3 22 0 28 -6 15 -15 22 -5 23 32 1 41 -36 84 -55 64z m43 -54 c0 -5 -4
-9 -10 -9 -5 0 -10 7 -10 16 0 8 5 12 10 9 6 -3 10 -10 10 -16z"/>
<path d="M1110 2700 c0 -5 5 -10 11 -10 5 0 7 5 4 10 -3 6 -8 10 -11 10 -2 0
-4 -4 -4 -10z"/>
<path d="M1490 2701 c0 -6 5 -13 10 -16 6 -3 10 -1 10 5 0 6 5 8 12 4 7 -4 8
-3 4 4 -9 14 -36 16 -36 3z"/>
<path d="M1537 2663 c-14 -13 -7 -42 8 -37 8 4 15 15 15 25 0 19 -11 25 -23
12z"/>
<path d="M1210 2616 c0 -9 5 -16 10 -16 6 0 10 4 10 9 0 6 -4 13 -10 16 -5 3
-10 -1 -10 -9z"/>
<path d="M745 2500 c3 -5 8 -10 11 -10 2 0 4 5 4 10 0 6 -5 10 -11 10 -5 0 -7
-4 -4 -10z"/>
<path d="M720 2466 c0 -2 7 -7 16 -10 8 -3 12 -2 9 4 -6 10 -25 14 -25 6z"/>
<path d="M720 2440 c0 -5 5 -10 11 -10 5 0 7 5 4 10 -3 6 -8 10 -11 10 -2 0
-4 -4 -4 -10z"/>
<path d="M1180 2394 c0 -7 27 -34 34 -34 13 0 5 16 -14 28 -11 7 -20 10 -20 6z"/>
<path d="M1120 2247 c0 -17 80 -130 87 -123 2 2 -17 34 -42 71 -25 37 -45 60
-45 52z"/>
<path d="M1110 2161 c0 -5 5 -13 10 -16 6 -3 10 -2 10 4 0 5 -4 13 -10 16 -5
3 -10 2 -10 -4z"/>
<path d="M1155 2101 c-3 -5 -1 -12 5 -16 5 -3 10 1 10 9 0 18 -6 21 -15 7z"/>
<path d="M1041 2034 c0 -11 3 -14 6 -6 3 7 2 16 -1 19 -3 4 -6 -2 -5 -13z"/>
<path d="M1887 2016 c21 -28 28 -26 18 3 -3 12 -13 21 -21 21 -12 0 -12 -4 3
-24z"/>
<path d="M950 1983 c0 -5 5 -15 10 -23 8 -12 10 -11 10 8 0 12 -4 22 -10 22
-5 0 -10 -3 -10 -7z"/>
<path d="M860 1839 c0 -5 5 -7 10 -4 6 3 10 8 10 11 0 2 -4 4 -10 4 -5 0 -10
-5 -10 -11z"/>
<path d="M880 1800 c0 -6 7 -10 15 -10 8 0 15 2 15 4 0 2 -7 6 -15 10 -8 3
-15 1 -15 -4z"/>
<path d="M1700 1716 c0 -18 7 -19 70 -2 8 3 23 5 33 5 9 1 17 6 17 12 0 6 -23
9 -60 7 -51 -3 -60 -6 -60 -22z"/>
<path d="M4290 1560 c0 -10 5 -30 11 -44 9 -19 9 -29 0 -40 -10 -12 -10 -20 1
-38 l13 -23 3 30 c5 42 -8 135 -19 135 -5 0 -9 -9 -9 -20z"/>
<path d="M3990 1525 c-17 -21 -5 -45 22 -45 17 0 19 3 9 9 -8 5 -12 18 -8 30
6 24 -5 27 -23 6z"/>
<path d="M4255 1500 c19 -36 24 -38 18 -6 -3 14 -11 27 -19 30 -12 5 -12 0 1
-24z"/>
<path d="M3615 1355 c9 -85 38 -256 42 -251 12 11 33 118 33 166 0 42 3 51 12
42 24 -24 38 -14 26 18 -5 17 -7 37 -4 45 9 25 -19 17 -49 -15 l-28 -30 -19
38 -18 37 5 -50z"/>
<path d="M4050 1345 c-7 -9 -10 -18 -7 -22 8 -7 37 15 37 28 0 14 -16 11 -30
-6z"/>
<path d="M4237 1323 c-2 -5 -7 -20 -11 -35 -5 -21 -2 -30 13 -38 32 -16 36
-12 36 35 0 36 -4 45 -17 45 -9 0 -19 -3 -21 -7z"/>
<path d="M1897 1313 c-4 -3 -7 -21 -7 -38 0 -42 -35 -152 -55 -171 -16 -17
-20 -34 -7 -34 9 0 7 -532 -3 -872 l-6 -198 114 0 114 0 -9 48 c-5 26 -7 94
-4 152 5 77 2 120 -9 160 -12 45 -13 85 -5 235 6 99 12 194 15 210 10 62 8
351 -3 385 -6 19 -15 53 -18 75 l-7 40 -8 -46 c-8 -53 -46 -163 -67 -197 -8
-13 -23 -27 -33 -33 -16 -8 -21 -5 -31 15 -9 20 -8 34 6 69 9 25 21 73 27 108
5 35 12 72 15 82 5 17 -6 23 -19 10z"/>
<path d="M3800 1311 c0 -5 5 -13 10 -16 6 -3 10 -2 10 4 0 5 -4 13 -10 16 -5
3 -10 2 -10 -4z"/>
<path d="M3706 1177 c3 -10 9 -15 12 -12 3 3 0 11 -7 18 -10 9 -11 8 -5 -6z"/>
<path d="M3820 1170 c0 -5 4 -10 9 -10 6 0 13 5 16 10 3 6 -1 10 -9 10 -9 0
-16 -4 -16 -10z"/>
<path d="M3760 1099 c0 -5 5 -7 10 -4 6 3 10 8 10 11 0 2 -4 4 -10 4 -5 0 -10
-5 -10 -11z"/>
<path d="M3681 1074 c0 -11 3 -14 6 -6 3 7 2 16 -1 19 -3 4 -6 -2 -5 -13z"/>
<path d="M4800 1059 c0 -5 5 -7 10 -4 6 3 10 8 10 11 0 2 -4 4 -10 4 -5 0 -10
-5 -10 -11z"/>
<path d="M4590 980 c0 -5 7 -10 15 -10 8 0 15 5 15 10 0 6 -7 10 -15 10 -8 0
-15 -4 -15 -10z"/>
<path d="M291 933 c0 -10 4 -27 9 -38 7 -17 9 -15 9 12 1 17 -3 35 -9 38 -5 3
-10 -2 -9 -12z"/>
<path d="M4580 725 c0 -8 5 -15 10 -15 6 0 10 7 10 15 0 8 -4 15 -10 15 -5 0
-10 -7 -10 -15z"/>
<path d="M4715 701 c7 -12 64 -41 79 -41 6 0 1 7 -11 15 -28 20 -76 38 -68 26z"/>
<path d="M4976 702 c-2 -4 11 -6 30 -4 19 2 34 6 34 8 0 8 -59 4 -64 -4z"/>
<path d="M415 689 c-5 -7 5 -8 32 -3 51 9 54 14 10 14 -20 0 -39 -5 -42 -11z"/>
<path d="M5067 662 c-34 -13 -38 -19 -35 -46 2 -25 8 -32 33 -37 41 -7 53 -2
72 35 15 28 17 29 24 11 4 -11 10 -33 14 -48 3 -16 16 -32 30 -39 30 -14 32
-34 5 -41 -16 -4 -20 -14 -20 -47 l0 -42 -33 25 c-23 18 -41 23 -60 20 -25 -5
-27 -3 -29 33 -1 38 -1 38 -5 6 -3 -18 1 -39 7 -47 8 -10 8 -15 -1 -21 -9 -5
-7 -10 7 -15 17 -7 17 -8 2 -8 -18 -1 -26 -21 -10 -21 5 0 14 -24 21 -52 10
-45 18 -57 50 -77 28 -17 37 -29 34 -42 -9 -32 7 -21 23 16 8 19 15 38 15 42
1 5 17 25 36 46 38 43 47 63 73 162 29 115 33 145 18 145 -8 0 -13 -15 -14
-44 -2 -81 -41 -184 -87 -232 -33 -34 -45 -42 -57 -34 -13 9 -13 12 0 23 42
34 93 133 103 199 5 33 1 41 -47 92 -47 51 -56 56 -91 55 -22 -1 -57 -8 -78
-17z m63 -352 c0 -5 -5 -10 -11 -10 -5 0 -7 5 -4 10 3 6 8 10 11 10 2 0 4 -4
4 -10z"/>
<path d="M350 635 c0 -8 5 -15 10 -15 6 0 10 7 10 15 0 8 -4 15 -10 15 -5 0
-10 -7 -10 -15z"/>
<path d="M81 631 c-10 -6 -9 -10 3 -14 8 -3 18 -2 21 3 8 13 -9 20 -24 11z"/>
<path d="M4510 620 c0 -18 7 -20 55 -20 30 0 55 2 55 5 0 10 -60 35 -85 35
-18 0 -25 -5 -25 -20z"/>
<path d="M410 570 c0 -6 11 -10 25 -10 14 0 25 4 25 8 0 4 -11 9 -25 10 -14 1
-25 -3 -25 -8z"/>
<path d="M510 570 c-24 -8 -23 -8 8 -9 20 -1 31 3 27 9 -3 6 -7 10 -8 9 -1 -1
-13 -5 -27 -9z"/>
<path d="M4480 521 c0 -41 55 -81 75 -55 11 16 69 5 118 -22 15 -8 27 -12 27
-7 -1 15 -70 52 -123 67 -29 8 -62 18 -74 22 -15 4 -23 2 -23 -5z"/>
<path d="M4980 500 c0 -19 3 -21 12 -12 9 9 9 15 0 24 -9 9 -12 7 -12 -12z"/>
<path d="M3968 473 c7 -3 16 -2 19 1 4 3 -2 6 -13 5 -11 0 -14 -3 -6 -6z"/>
<path d="M4075 420 c3 -5 10 -10 16 -10 5 0 9 5 9 10 0 6 -7 10 -16 10 -8 0
-12 -4 -9 -10z"/>
<path d="M33 297 c-30 -20 -33 -27 -33 -74 0 -33 4 -53 11 -53 12 0 83 35 178
88 61 34 65 29 -47 52 -68 13 -71 13 -109 -13z"/>
<path d="M5030 251 c0 -5 5 -13 10 -16 6 -3 10 -2 10 4 0 5 -4 13 -10 16 -5 3
-10 2 -10 -4z"/>
<path d="M5106 172 c-6 -10 19 -43 27 -35 13 12 7 43 -7 43 -8 0 -17 -3 -20
-8z"/>
</g>
</svg>
